<?xml version="1.0" encoding="UTF-8" standalone="no"?>
<!DOCTYPE svg PUBLIC "-//W3C//DTD SVG 1.1//EN" "http://www.w3.org/Graphics/SVG/1.1/DTD/svg11.dtd">
<svg width="100%" height="100%" viewBox="0 0 1024 1024" version="1.1" xmlns="http://www.w3.org/2000/svg" xmlns:xlink="http://www.w3.org/1999/xlink" xml:space="preserve" xmlns:serif="http://www.serif.com/" style="fill-rule:evenodd;clip-rule:evenodd;stroke-linejoin:round;stroke-miterlimit:2;">
    <g id="_-332b24ff" serif:id="#332b24ff">
        <path d="M449.11,165.12C470.57,159.28 492.77,156.28 514.99,155.76C534.9,156.04 555.11,157.64 574.17,163.78C593.75,170.74 612.71,179.34 631.18,188.83C646.53,196.76 660.31,207.35 673.12,218.86C681.12,225.84 688.74,233.29 695.4,241.56C702.86,251.26 710.42,260.97 716.19,271.81C728.06,292.88 735.82,316 741.66,339.38C744.92,354.14 748.19,368.94 749.58,384.02C752.02,402.59 751.31,421.33 751.03,439.99C750.13,454.08 749.32,468.25 746.34,482.09C750.35,480.88 755.11,479.45 758.84,482.23C764.43,486.31 765.77,494 764.62,500.47C763.35,507 761.25,513.38 760.62,520.04C759.99,523.15 762.38,525.7 763.49,528.42C768.33,539.4 774.91,549.71 777.66,561.52C781.59,575.03 778.98,589.4 774.26,602.35C770.31,614.15 765.42,625.63 759.84,636.74C755.66,644.76 750.27,652.65 742.32,657.3C739.67,658.91 736.5,658.3 733.58,658.19C731.67,672.27 727.51,685.92 722.02,699.01C716.85,713.31 710.55,727.3 701.76,739.77C693.17,751.78 685.25,764.34 675.33,775.33C666.22,785.54 656.31,795.02 646.07,804.09C632.77,815.13 620.29,827.2 606.03,837.05C599.67,841.34 593.85,846.45 587.01,849.99C583.58,851.74 580.18,853.65 577.44,856.4C571.35,862.19 563.5,866.17 555.11,867.06C535.51,869.16 515.77,868.26 496.13,867.39C482.84,866.3 469.5,865.2 456.46,862.33C448.4,860.57 440.73,856.92 434.51,851.47C432.2,849.36 429.63,847.54 426.82,846.15C413.11,839.19 401.21,829.32 389.39,819.62C381.87,812.81 374.52,805.81 367.06,798.94C354.6,786.37 342.15,773.71 331.36,759.64C321.94,748.19 314.12,735.44 308.23,721.84C300.17,703.26 296.48,683.21 292.88,663.39C285.53,663.79 277.82,661.77 272.41,656.6C267.38,651.72 263.4,645.77 260.63,639.35C256.77,630.23 258.23,620.15 257.42,610.55C254.87,608.85 251.84,607.49 250.27,604.72C246.04,597.4 245.58,588.61 246.38,580.38C247.03,574.81 248.37,569.19 251.39,564.4C253.57,560.64 256.63,557.46 258.62,553.6C260.13,547.5 259.76,541.09 259.29,534.87C258.91,527.44 253.51,521.44 252.99,514.02C251.81,507.69 254.02,500.07 260.21,497.19C264.67,494.83 269.8,496.42 274.43,497.29C271.62,488.01 269.51,478.54 267.84,469C262.82,445.37 260.09,421.18 260.7,397C260.84,371.8 265.2,346.55 273.9,322.88C279.58,308.2 286.19,293.84 294.24,280.29C303.2,265.65 313.74,252.01 325.43,239.45C347.43,215.39 373.97,195.48 403.36,181.37C418,174.38 433.55,169.58 449.11,165.12M416.71,186.72C405.03,191 394.24,197.26 383.57,203.57C381.38,204.95 379.04,206.23 377.34,208.23C371.67,210.96 366.84,215.06 361.87,218.86C346.55,230.72 333.13,244.84 320.58,259.55C302.13,281.89 288.24,307.95 279.53,335.56C278.2,340.18 276.47,344.8 276.38,349.66C274.76,354.34 273.75,359.2 273.04,364.09C267.93,397.24 268.39,431.3 274.63,464.26C276.42,474.79 277.3,485.62 281.25,495.65C285.19,506.2 286.77,517.39 288.71,528.42C290.05,536.22 292.7,543.76 293.66,551.63C288.87,546.08 289.2,538.2 285.87,531.89C285.12,526.61 283.02,521.64 281.45,516.57C280.83,514.16 279.15,512.3 277.3,510.75C273.95,507.02 268.75,505.78 263.96,505.35C261.35,505.09 259.57,507.53 258.68,509.68C256.02,516.04 258.81,522.88 260.44,529.13C260.42,529.71 260.39,530.87 260.37,531.45C262.1,536.47 263.11,541.7 263.6,546.98C266.02,543.6 268.13,539.51 272.41,538.22C270.97,552.74 257.83,563.19 256.75,577.83C256.02,582.56 255.74,587.42 256.79,592.13C257.18,596.36 259.31,600.14 260.8,604.04C261.93,606.89 262.16,610 263.1,612.91C263.74,620.17 265.8,627.41 269.21,633.84C271.89,638.89 275.31,643.67 279.86,647.2C282.86,649.95 287.14,647.63 289.92,645.73C290.7,641.44 289.92,637.07 289.2,632.84C289.18,631.63 289.14,630.44 289.09,629.25C288.63,625.85 288.51,622.41 288,619.02C287.43,613.64 287.15,608.22 286.19,602.9C286.22,598.28 285.5,593.69 285.44,589.08C285.07,581.81 285.42,574.51 284.51,567.28C284.87,564.11 285.24,560.94 285.66,557.78C286.44,558.06 288,558.62 288.79,558.9C291.49,582.63 296.6,606.02 299.39,629.74C301.23,640.28 301.71,651.16 305.19,661.33C304.71,665.59 306.29,669.71 307.16,673.82C310.21,685.36 312.47,697.14 316.57,708.39C321.35,722.52 328.5,735.77 336.96,748.03C347.51,763.57 359.37,778.17 371.61,792.41C377.69,799.03 384.55,804.89 391.05,811.11C401.31,819.85 411.84,828.34 423.05,835.83C420.02,830.83 417.98,825.13 414.05,820.74C414.11,818.77 414.16,816.82 414.28,814.88C422.96,820.22 429.88,827.92 436.24,835.78C442.37,843.24 451.51,847.74 460.99,849.1C487.41,853.48 514.28,854.49 541.02,853.87C548.32,853.61 555.86,853.52 562.74,850.77C569.13,848.32 574.45,843.89 580.07,840.11C588.38,834.57 594.79,826.78 601.4,819.42C602.62,817.88 604.48,817.22 606.24,816.53C604.58,824.76 597.22,829.88 593.66,837.17C598.36,834.55 602.39,830.94 606.35,827.33C616.48,818.06 626.46,808.63 636.39,799.14C643.39,792.54 649.8,785.38 656.24,778.25C666.68,767.1 675.5,754.57 683.86,741.83C688.74,734.37 694.07,727.19 698.31,719.33C704.17,708.6 708.02,696.96 712.74,685.73C713.91,682.74 715.35,679.75 715.48,676.49C719.25,670.81 719.77,663.85 721.38,657.4C724.97,639.13 729.58,621.09 732.79,602.75C735.11,592.05 736.39,581.17 738.43,570.42C739.22,566.03 740.42,561.66 740.38,557.17C741.04,557.46 742.35,558.04 743.01,558.33C743.05,560.1 743.11,561.86 743.17,563.64C742.95,572.64 741.15,581.55 741.36,590.57C741.03,591.82 740.76,593.08 740.55,594.37C740.76,599.16 740.24,603.93 739.98,608.7C739.26,613.25 739.1,617.86 738.98,622.46C738.64,624.82 738.32,627.18 738,629.55C737.54,632.84 737.15,636.13 736.82,639.44C744.8,639.49 752.05,634.01 754.4,626.43C757.03,619.64 760.58,613.16 762.12,605.99C765.26,600.03 766.4,593.21 767.64,586.64C769.8,573.56 766.21,560.32 760.28,548.7C756.44,540.99 753.4,532.93 750,525.03C748.97,521.92 747.13,517.69 749.91,514.97C753.19,512.5 756.17,516.32 758.47,518.27C759.22,510.24 759.51,501.81 756.86,494.09C755.76,492.02 754.39,488.21 751.4,489.47C745.85,491.53 742.72,497.33 742.87,503.09C745.61,500.22 748.36,496.79 752.71,496.74C753.24,498.88 753.74,501.03 754.19,503.21C752.71,503.86 751.23,504.5 749.75,505.13C748.78,506.46 747.8,507.79 746.83,509.11C745.66,508.99 744.51,508.88 743.37,508.76C743.03,507.12 742.71,505.49 742.4,503.86C742.29,505.5 742.2,507.14 742.07,508.79C738.5,516.88 738.49,525.88 736.13,534.3C735.9,527.82 737.16,521.44 737.31,514.98C737.18,505.23 737.68,495.49 738.61,485.79C739.49,468.53 741.35,451.3 740.99,434C740.82,422.87 741.17,411.73 740.46,400.61C739.4,382.41 736.63,364.32 732.47,346.58C730.83,339.63 729.82,332.47 726.97,325.88C726.51,321.29 724.73,316.99 723.39,312.62C717.8,295.73 709.9,279.62 700.44,264.57C694.26,255.84 688.33,246.84 680.83,239.16C675.13,233.17 668.85,227.78 662.74,222.24C659.91,219.67 656.94,217.23 653.72,215.17C652.4,213.21 650.43,211.83 648.59,210.41C638.32,202.92 627.25,196.54 615.72,191.18C600.78,183.57 585.51,176.36 569.36,171.69C560.12,168.89 550.44,168.45 540.92,167.3C532.32,166.37 523.68,165.47 515.02,165.65C481.22,165.92 448.17,174.95 416.71,186.72Z" style="fill:rgb(51,43,36);fill-rule:nonzero;"/>
        <path d="M398.12,404.17C417.23,401.05 436.77,403.56 455.61,407.34C462.78,409.22 470.25,410.04 477.12,412.94C476.89,414.22 476.67,415.51 476.44,416.79C479.08,416.33 481.71,415.9 484.36,415.51C486.41,421.58 480.35,425.56 478.83,430.89C478.09,432.39 477.98,434.72 476.11,435.27C466.42,435.8 456.75,434.8 447.09,434.18C427.55,432.95 407.93,431.77 388.37,433.25C376.43,433.79 364.39,434.75 352.81,437.89C345.46,440 337.99,441.85 331.03,445.07C327.75,446.48 324.34,448.68 320.67,447.27C324.18,441.43 329.3,436.83 334.58,432.62C346.24,423.53 359.4,416.52 373.1,411.05C381.17,407.86 389.74,406.32 398.12,404.17M393,412.89C388.86,413.78 384.71,414.62 380.61,415.69C371.48,418.1 363.03,422.39 354.63,426.62C348.35,429.86 341.81,432.96 336.84,438.12C340.26,437.31 343.62,436.26 346.9,434.99C356.55,431.29 366.76,429.38 376.94,427.78C374.06,426.48 370.58,425.44 369.59,422.05C374.19,422.17 378.6,423.53 382.86,425.19C386.96,426.86 391.43,426.95 395.8,427.11C394.13,425.29 392.72,423.26 391.62,421.05C395.94,421.66 399.95,423.4 403.97,424.99C407.83,426.54 412.05,426.15 416.1,425.96C412.73,423.58 407.72,421.86 407.7,416.96C412.69,418.21 416.98,421.07 421.31,423.72C426.03,426.66 431.77,426.46 437.13,426.56C433.64,424.5 429.66,422.73 427.65,418.98C436.92,419.42 443.55,428.34 453.16,427.12C450.26,425.19 447.26,423.46 444.19,421.83C444.22,421.07 444.27,419.54 444.3,418.78C453.05,421.75 460.33,429.07 469.99,429.09C473.3,429.36 474.42,425.62 475.99,423.42C476.71,422.09 477.44,420.78 478.19,419.47C475.43,418.89 472.74,418.06 470.15,416.98C466.05,415.28 461.58,414.92 457.37,413.62C454.37,412.82 451.43,411.55 448.29,411.51C430.09,407.88 410.97,408.08 393,412.89Z" style="fill:rgb(51,43,36);fill-rule:nonzero;"/>
        <path d="M557.06,409.02C566.37,404.63 576.91,404.48 587,404.25C616.65,404.4 646.76,409.17 673.84,421.68C681.34,425.45 688.35,430.18 694.7,435.67C697.42,438.16 700.16,440.66 702.6,443.44C703.95,444.62 703.18,446.53 703.26,448.08C694.02,447.21 685.43,443.33 676.35,441.62C649.59,433.96 621.51,433.62 593.9,434.47C601.86,435.8 609.84,436.99 617.72,438.74C631.69,442.9 645.39,448.32 657.63,456.35C663.36,460.18 669.32,463.9 674.07,468.96C675.45,470.2 675.26,472.13 675.42,473.8C662.59,464.68 650.14,454.73 635.56,448.46C626.14,444.6 616.43,440.07 605.98,440.8C598.2,440.69 590.87,443.39 583.65,445.93C588.59,442.1 594.27,439.45 600.1,437.3C593.51,436.11 586.86,434.73 580.13,435.26C573.05,435.57 565.93,438.03 558.88,436.14C555.21,432.89 553.9,427.95 550.67,424.36C547.74,420.94 544.12,418.02 541.97,413.98C541.07,412.4 541.75,410.54 541.85,408.86C543.84,409.29 545.84,409.77 547.82,410.3C548.57,409.56 549.32,408.83 550.09,408.11C552.35,408.58 554.76,410.16 557.06,409.02M568.66,412.18C562.89,411.87 557.11,413.64 551.37,412.24C551.44,413.76 551.16,415.46 552.24,416.73C554.55,420.09 557.22,423.2 559.49,426.61C566.44,422.73 572.78,417.78 580.08,414.54C580.27,415.57 580.46,416.62 580.66,417.67C583.51,416.67 586.48,416.05 589.49,415.79C587.96,417.55 586.29,419.24 584.19,420.3C577.96,423.56 571.82,427.02 566.08,431.11C569.13,430.49 572.11,429.46 574.71,427.71C580.58,423.92 587.08,421.33 593.24,418.08C595.95,416.76 598.65,415.16 601.69,414.76C601.89,415.3 602.3,416.37 602.5,416.9C596.16,421.55 588.67,424.46 582.82,429.78C593.84,427.82 603.95,422.32 615.1,421.06C609.46,424.64 602.73,425.74 596.86,428.85C608.52,429.63 619.53,424.73 631.08,424.15C625.68,425.82 620.04,426.61 614.76,428.65C627.96,430.73 641.03,427.12 654.21,427.22C649.4,428.17 644.52,428.69 639.72,429.61C649.08,432.76 659.1,430.49 668.72,430.13C668.73,430.51 668.76,431.27 668.77,431.64C665.09,431.77 661.42,432.03 657.78,432.53C663.06,433.79 668.53,433.42 673.86,434.35C677.05,434.87 680.29,434.82 683.51,434.6C683.97,434.71 684.87,434.93 685.33,435.03C680.64,430.9 674.83,428.49 669.34,425.67C666.45,424.31 663.49,422.81 660.26,422.56C657.35,421.33 654.37,420 651.16,419.89C640.37,415.73 628.74,414.73 617.45,412.62C605.38,411.06 593.17,410.69 581.01,410.88C576.86,410.91 572.71,411.28 568.66,412.18Z" style="fill:rgb(51,43,36);fill-rule:nonzero;"/>
        <path d="M421.48,438.64C430.07,438.12 438.69,438.44 447.29,438.06C451.27,438.32 455.24,438.65 459.19,439.23C456.41,439.77 453.59,440.1 450.76,440.14C436.76,440.54 422.62,440.73 408.82,443.35C418.11,444.23 427.68,444.76 436.28,448.78C422.09,446.94 407.67,444.74 393.37,446.5C383.89,448.75 374.46,451.96 366.17,457.17C360.09,461.02 355.87,467.02 350.31,471.51C350.6,469.75 350.89,467.99 351.29,466.25C355.82,458.18 363.77,452.57 372.26,449.24C387.82,442.59 404.74,440.14 421.48,438.64Z" style="fill:rgb(51,43,36);fill-rule:nonzero;"/>
        <path d="M383.63,456.61C392.38,453.98 401.63,454.76 410.58,455.63C423.55,458.66 435.86,463.97 447.27,470.8C453.17,474.48 460.62,476.89 464.27,483.22C457.3,479.7 450.4,476.07 443.29,472.83C438.19,470.25 433.13,467.55 427.76,465.56C428.7,469.93 429.91,474.42 429.03,478.91C428.32,483.61 425.77,487.71 423.47,491.77C428.31,491.83 433.15,491.57 437.98,491.24C438.36,491.56 439.11,492.21 439.49,492.53C428.21,495.43 416.52,495.73 405,497.02C395.02,498.18 384.96,498.14 374.93,497.95C372.69,497.99 370.52,497.46 368.51,496.52C370.49,496.01 372.5,495.55 374.54,495.25C379.12,494.58 383.72,494.03 388.33,493.61C384.31,488.97 381.19,483.25 381.18,476.97C380.85,471.92 382.87,467.2 384.84,462.68C378.4,465.08 372.57,468.87 367.63,473.63C366.72,474.44 365.81,475.25 364.89,476.05C360.81,479.6 356.44,482.79 352.07,485.98C351.55,485.74 350.5,485.25 349.98,485C352.27,482.26 354.55,479.52 356.89,476.82C360.88,472.45 365.01,468.21 369.25,464.1C373.72,461.04 378.37,458.08 383.63,456.61M390.44,461.56C383.49,467.62 382.54,479.14 387.05,486.98C388.84,489.77 391.12,493.38 394.93,493.07C400.42,493.16 405.91,492.56 411.41,492.55C414.43,492.33 418.03,492.68 420.31,490.26C426.5,484.13 428.41,474.09 424.93,466.11C424.19,464 421.68,463.73 419.86,463.08C410.32,460.67 400.13,459.46 390.44,461.56Z" style="fill:rgb(51,43,36);fill-rule:nonzero;"/>
        <path d="M535.01,476.02C540.13,467.88 547.34,461.33 554.98,455.6C555.78,455.82 557.38,456.26 558.18,456.48C553.33,465.26 546.5,472.72 541.18,481.19C538.52,485.27 536.93,490.07 537.05,494.98C537.22,508.66 540.58,522.03 542.81,535.46C543.28,537.08 542.71,537.63 541.11,537.13C539.27,534.75 539.07,531.56 538.28,528.75C535.94,517.48 532.39,506.46 530.92,495.03C529.97,488.46 531.47,481.62 535.01,476.02Z" style="fill:rgb(51,43,36);fill-rule:nonzero;"/>
        <path d="M593.58,460.54C602.63,457.19 612.5,456.82 622.02,457.83C631.3,458.77 640.65,461.28 648.39,466.66C652.72,469.62 655.74,473.97 659.19,477.84C662.35,481.45 666.09,484.49 669.39,487.98C662.8,487.08 657.95,482.17 653.37,477.8C649.74,473.97 645.3,471.04 640.6,468.7C641.4,472.92 642.25,477.28 641.3,481.57C640.53,485.83 638.14,489.51 635.96,493.17L636.54,493.56C645.14,493.76 653.75,493.86 662.34,494.4C659.88,496.09 656.82,495.73 654,495.77C645.34,495.75 636.69,495.38 628.04,495.69C612.1,496.6 596.04,498.66 580.14,496.18C579.34,495.26 578.55,494.35 577.78,493.43C579.91,493.03 582.04,492.6 584.2,492.31C588.69,492.27 593.19,492.48 597.68,492.7C595.28,488.47 592.98,483.98 592.74,479.03C592.46,475.13 593.56,471.33 594.62,467.63C589.57,469.82 584.57,472.14 579.73,474.76C573.95,477.28 568.85,482.49 562.15,481.97C566.49,476.89 572.29,473.47 577.71,469.71C582.77,466.28 587.79,462.63 593.58,460.54M598.86,466.84C594.03,474.73 595.05,486.6 602.34,492.69C607.15,493.71 612.12,492.91 617,493.09C621.86,492.97 626.84,493.84 631.62,492.65C639.27,486.94 640.18,476.07 637.49,467.53C633.69,466.39 629.84,465.44 625.91,464.91C621.45,463.74 616.74,463.53 612.17,463.98C607.73,464.47 602.59,464.05 598.86,466.84Z" style="fill:rgb(51,43,36);fill-rule:nonzero;"/>
        <path d="M403.37,470.43C406.82,469.43 410.43,469.34 413.97,469.84C413.86,472.76 413.78,475.68 413.74,478.61C409.24,479.3 404.71,479.79 400.17,479.93C399.95,478.98 399.74,478.04 399.54,477.1C402.34,475.91 403.68,473.45 403.37,470.43Z" style="fill:rgb(51,43,36);fill-rule:nonzero;"/>
        <path d="M614.2,472.4C617.8,472.03 621.43,471.92 625.07,471.99C625.08,474.9 627.15,479.03 624.3,481.11C619.81,481.69 615.2,481.69 610.7,481.23C609.75,480.26 609.44,478.88 608.9,477.69C611.14,476.91 612.94,475.45 613.77,473.17L614.2,472.4Z" style="fill:rgb(51,43,36);fill-rule:nonzero;"/>
        <path d="M262.83,523C264.43,520.12 265.32,515.5 269.02,514.81C273.5,515.71 275.97,520.19 278.56,523.55C278.64,523.98 278.81,524.84 278.89,525.27C277.66,526.06 276.47,526.9 275.15,527.52C272.44,525.64 270.36,523.04 268.13,520.66C266.89,524.14 265.46,527.57 263.53,530.73C263.23,528.15 262.93,525.58 262.83,523Z" style="fill:rgb(51,43,36);fill-rule:nonzero;"/>
        <path d="M748,559.22C753.01,562.36 754.26,568.4 755.34,573.78C755.75,576.11 756.14,578.71 754.79,580.84C751.96,585.76 747.68,589.62 743.5,593.38C742.88,592.21 742.27,591.04 741.68,589.88C742.78,587.93 744.04,586.09 745.23,584.2C746.86,581.57 749.2,578.79 748.46,575.46C747.67,570.08 745.34,564.48 748,559.22Z" style="fill:rgb(51,43,36);fill-rule:nonzero;"/>
        <path d="M275.88,561.86C277.5,561.4 279.14,561.05 280.79,560.69C280.96,562.5 281.12,564.33 281.28,566.16C278.13,571.44 274.87,576.94 273.52,582.99C274.59,586.16 277.16,588.5 279.17,591.07C278.67,592.06 278.15,593.05 277.64,594.04C273.5,591.08 267.93,588.39 266.86,582.93C267.36,575.11 272.56,568.69 275.88,561.86Z" style="fill:rgb(51,43,36);fill-rule:nonzero;"/>
        <path d="M439.24,570.37C442.03,566.59 445.88,563.84 449.7,561.18C450.61,561.88 451.52,562.59 452.44,563.32C450.44,566.74 448.56,570.24 446.67,573.73C444.22,577.41 443.03,582.49 445.64,586.41C446.72,587.59 447.88,588.71 449.18,589.68C451.34,591.3 453.61,592.79 455.88,594.29C455.61,594.69 455.06,595.5 454.79,595.91C451.12,595.36 447.44,594.89 443.79,594.23C440.96,592.53 437.97,590.54 436.61,587.4C435.35,584.07 435.57,580.42 435.75,576.94C436.71,574.65 437.85,572.43 439.24,570.37Z" style="fill:rgb(51,43,36);fill-rule:nonzero;"/>
        <path d="M574.49,564.36C575.8,563.14 576.81,560.75 578.97,561.2C584.18,561.96 587.86,566.28 590.91,570.22C591.34,571.12 591.65,572.07 591.85,573.08C592.63,578.07 592.37,583.31 590.22,587.96C589.38,589.39 588.31,590.83 586.78,591.57C584.26,592.62 581.68,593.49 579.14,594.45C576.47,593.86 573.84,593.15 571.2,592.52C576.07,589.89 582.34,588 584.36,582.23C584.21,576.55 581.62,571.36 577.44,567.57C576.45,566.5 575.45,565.43 574.49,564.36Z" style="fill:rgb(51,43,36);fill-rule:nonzero;"/>
        <path d="M466.28,587.17C469.66,585.38 473.44,584.47 477.2,583.9C480.84,583.6 484.66,583.51 488.09,584.95C491.43,586.41 493.77,589.32 496.16,591.97C500.42,597.19 506.06,601.54 512.96,602.33C513.4,602.42 514.26,602.61 514.7,602.71C517.42,602.76 520.27,602.28 522.38,600.42C528.1,595.8 533.71,591.02 539.67,586.7C544.26,583.38 550.4,582.79 555.77,584.2C560.42,585.82 563.75,589.75 568.2,591.78C568.37,592.54 568.7,594.04 568.87,594.79C565.7,594.86 562.52,594.54 559.49,593.58C552.91,591.39 545.83,592.16 539.15,593.37C531.86,594.72 529.45,603.14 523.12,606.17C516.61,609.48 509.17,606.67 502.91,604.16C496.24,601.57 491.62,595.33 484.59,593.53C477.98,591.73 471.12,593 464.46,593.79C463.73,593 463,592.22 462.28,591.44C463.57,589.98 464.87,588.52 466.28,587.17Z" style="fill:rgb(51,43,36);fill-rule:nonzero;"/>
        <path d="M397.05,652.97C400.8,655.72 401.78,660.25 402.18,664.61C403.06,664.43 403.94,664.26 404.83,664.1C415.86,661.97 426.95,660.18 438.02,658.31C448.97,657.02 459.96,656.15 470.99,656.06C477.93,656.06 484.85,654.78 491.79,655.34C499.34,656.03 505.13,662.97 512.94,662.11C526.7,660.38 540.15,656.43 554.03,655.6C570.56,654.51 586.87,659.13 601.94,665.55C604.39,666.62 606.8,667.76 609.21,668.91C609.84,666.48 609.55,662.27 613.06,662.26C618.35,662.54 621.99,667.44 624.37,671.7C625.91,673.94 625.55,678.39 622.11,678.32C619.75,676.9 618.01,674.68 615.68,673.24C610.36,672.52 605.85,676.13 602.3,679.63C596.02,685.58 590.24,692.05 583.76,697.78C577.93,702.98 570.14,704.84 562.82,706.89C546.97,711.1 530.91,714.88 514.56,716.46C501.71,717.14 488.81,717.93 475.96,717.08C463.73,716.29 453.46,708.97 443.55,702.5C432.61,695.66 422.6,687.45 412.93,678.95C409.63,676.16 406.7,671.41 401.72,672.49C400.17,675.88 398.07,678.98 395.53,681.7C394.99,681.2 393.91,680.21 393.37,679.71C393.67,678.82 393.96,677.93 394.24,677.05C395.99,672.05 395.73,666.7 395.25,661.52C394.84,658.53 395.88,655.66 397.05,652.97M468.05,661.88C457.4,662.97 446.69,663.85 436.24,666.22C434.95,672.1 435.47,678.29 436.92,684.09C437.41,687.55 441.08,689.15 444.19,689.48C450.59,689.99 457.04,690.35 463.32,691.81C471.72,693.83 480.42,693.83 488.99,694.34C490.66,696.8 487.2,697.24 485.47,697.53C479.03,698.14 472.57,698.17 466.11,698.2C466.32,700.23 465.5,702.64 466.62,704.45C472.44,707.85 479.33,708.47 485.94,708.55C500.88,708.91 515.95,709.38 530.76,706.97C544,704.79 557.13,702 570.22,699.02C574.28,697.97 578.58,696.67 581.65,693.65C584.05,690.91 586.57,687.99 587.3,684.3C588.46,679.43 589.99,674.58 589.92,669.53C579.05,665.4 567.76,661.81 556.08,661.11C539.45,660.07 524.16,668.07 508,670.34C499.1,670.19 492.28,663.2 483.79,661.48C478.55,660.97 473.28,661.55 468.05,661.88Z" style="fill:rgb(51,43,36);fill-rule:nonzero;"/>
        <path d="M538,741.19C544.97,740.93 551.67,738.16 558.71,738.74C555.41,742.69 550.45,744.29 545.72,745.76C544.42,746.18 543.12,746.59 541.83,747.03C534.88,749.69 527.47,750.94 520.03,750.71C508.88,751.21 497.72,750.33 486.8,748C484.95,747.62 483.12,747.19 481.31,746.69C476.31,745.24 471.41,743.44 466.71,741.21C473.49,741.26 480.23,742.24 487.01,742.28C504.01,742.57 521.02,742 538,741.19Z" style="fill:rgb(51,43,36);fill-rule:nonzero;"/>
        <path d="M696.5,767.48C697.8,765.97 699.37,764.73 701.12,763.78C696.79,771.59 689.49,777.23 684.57,784.63C683.77,786.17 684.27,788.05 684.08,789.74C680.98,787.04 678.77,783.45 677.67,779.5C679.12,780.21 680.55,780.98 681.96,781.8C681.97,779.65 682.01,777.51 682.05,775.39L683.8,775.44C683.68,777.59 683.59,779.77 683.46,781.94C687.59,776.92 692.16,772.31 696.5,767.48Z" style="fill:rgb(51,43,36);fill-rule:nonzero;"/>
        <path d="M673.84,788.01C674.59,786.44 675.15,782.89 677.55,784.08C677.69,785.35 677.8,786.63 677.88,787.93C679.25,788.81 680.64,789.68 682.01,790.61C681.53,792.03 681.03,793.44 680.5,794.85C677.22,794.11 674.51,791.33 673.84,788.01Z" style="fill:rgb(51,43,36);fill-rule:nonzero;"/>
        <path d="M669.84,797.85C671.07,795.19 669.69,792.11 671.36,789.56C672.7,791.98 674.01,794.42 675.3,796.88C675.98,795.77 676.7,794.69 677.45,793.63C677.14,795.95 676.62,798.24 676.06,800.52C674.47,799.73 672.92,798.88 671.34,798.11C671.92,801.15 673.04,804.04 674.73,806.65C673.52,806.26 672.33,805.84 671.16,805.42C669.81,806.32 668.43,807.16 667.03,807.98C665.11,805.71 663.61,803.16 662.03,800.67C660.11,804.52 663.65,807.74 664.38,811.39C662.49,809.6 661.03,807.45 659.63,805.29C658.77,805.87 657.92,806.45 657.08,807.05C658.67,809.13 660.2,811.27 661.4,813.62C659.59,813.48 657.81,813.26 656.03,813.04C656.41,813.95 656.79,814.87 657.17,815.8C656.67,815.72 655.68,815.56 655.19,815.48C654.71,816.57 654.22,817.67 653.74,818.77C649.3,819.78 647.21,824.2 644.05,827.03C642.8,825.59 641.22,824.35 640.4,822.61C639.95,820.38 640.33,818.06 641.71,816.23C642.12,819.26 642.79,822.31 645.12,824.49C644.94,821.5 643.68,818.76 643.1,815.87C642.53,813.43 644.16,811.34 645.46,809.47C646.25,810.71 647.02,811.99 647.79,813.27C648.45,811.94 649.13,810.62 649.85,809.33C650.81,811.74 651.8,814.15 652.9,816.52C655.05,813.71 652.89,810.66 651.99,807.84C653.7,808.94 655.35,810.15 657.06,811.29C655.79,809.05 654.46,806.86 653.34,804.55C654.51,804.61 655.69,804.69 656.87,804.79C659.45,801 662.28,797.38 664.53,793.38C664.92,797.66 664.54,802.76 668,805.96C671.13,804.05 668.48,800.53 669.84,797.85M645.8,819.72C645.93,817.34 645.86,814.96 645.68,812.59C644.12,814.87 644.07,817.5 645.8,819.72M647.97,814.6C647.18,815.63 647.26,817.77 648.53,818.39C650.04,817.85 649.82,814.03 647.97,814.6Z" style="fill:rgb(51,43,36);fill-rule:nonzero;"/>
        <path d="M637.12,818.57C638.47,821.44 639.55,824.44 640.74,827.39C638.84,828.64 637.53,830.49 636.53,832.51C635.81,832.42 635.09,832.34 634.39,832.27C633.55,833.66 633.33,836.5 631.07,835.35C629.89,832.89 629.25,830.22 628.07,827.77C628.28,830.5 628.95,833.17 629.36,835.89C626.48,832.75 625.79,828.2 628.15,824.55C630.22,827.09 631.21,830.22 632.35,833.24C632.77,832.37 633.21,831.51 633.65,830.66C631.2,828.76 630.31,825.91 631.75,823.06C633.34,825.35 634.84,827.7 636.5,829.96C636.73,826.16 636.56,822.34 637.12,818.57Z" style="fill:rgb(51,43,36);fill-rule:nonzero;"/>
        <path d="M619.94,828.11C620.51,827.82 621.66,827.24 622.23,826.95C623.89,828.6 625.68,830.47 625.66,832.99C625.23,835.03 623.76,836.63 622.63,838.31C623.87,840.01 625.29,841.6 627.12,842.7C627.58,840.44 628.07,838.19 628.73,835.99C628.79,838.48 630.13,842.75 626.91,843.83C621.14,841.25 620.22,833.72 619.94,828.11M620.84,828.17C620.89,830.3 620.99,832.44 621.09,834.59C622.16,833.07 623.22,831.56 624.29,830.05C623.14,829.41 621.99,828.78 620.84,828.17Z" style="fill:rgb(51,43,36);fill-rule:nonzero;"/>
    </g>
    <g id="_-966d54ff" serif:id="#966d54ff">
        <path d="M416.71,186.72C448.17,174.95 481.22,165.92 515.02,165.65C523.68,165.47 532.32,166.37 540.92,167.3C550.44,168.45 560.12,168.89 569.36,171.69C585.51,176.36 600.78,183.57 615.72,191.18C627.25,196.54 638.32,202.92 648.59,210.41C650.43,211.83 652.4,213.21 653.72,215.17C656.07,219.52 658.09,224.05 660.73,228.23C666.23,237.03 672.56,245.29 677.62,254.36C683.21,264.54 689.42,274.42 694.09,285.08C690.02,281.09 686.07,276.97 682.43,272.58C676.46,265.57 669.71,259.3 663.28,252.72C656.44,245.86 649.76,238.78 642.03,232.9C609.38,254.77 570.55,265.27 531.89,269.86C512.03,272.35 491.97,272.54 471.99,271.79C435.8,269.68 399.11,262.5 367.07,244.88C360.4,248.61 353.85,252.58 347.09,256.16C355.31,239.07 367.08,224.09 377.34,208.23C379.04,206.23 381.38,204.95 383.57,203.57C394.24,197.26 405.03,191 416.71,186.72Z" style="fill:rgb(150,109,84);fill-rule:nonzero;"/>
        <path d="M702.4,301.68C709.85,319.07 711.86,338.51 709.18,357.16C708.06,364.83 705.38,372.14 703.66,379.67C702.47,384.48 704.65,389.13 706.45,393.47C711.18,405.19 717.38,416.24 722.02,428C724.67,435.03 728.44,442 728.07,449.74L727.62,449.14C723.49,443.7 719.31,438.3 714.85,433.13C712.18,430.08 710.52,426.32 709.55,422.42C707.46,414.2 704.73,406.01 700.13,398.83C696.65,393.36 691.23,389.11 689.11,382.83C687.29,377.45 689.14,371.81 690.56,366.58C696.71,345.45 701.52,323.74 702.4,301.68Z" style="fill:rgb(150,109,84);fill-rule:nonzero;"/>
        <path d="M520.03,750.71C527.47,750.94 534.88,749.69 541.83,747.03C541.57,750.16 542.11,754.08 539.16,756.14C534.59,759.74 529.35,762.36 524.46,765.5C521.24,767.25 517.5,769.82 513.7,768.31C508.7,766.29 504.45,762.86 499.84,760.13C496.2,757.75 492.16,755.98 488.77,753.24C487.17,752 487.32,749.76 486.8,748C497.72,750.33 508.88,751.21 520.03,750.71Z" style="fill:rgb(150,109,84);fill-rule:nonzero;"/>
    </g>
    <g id="_-8e5d42ff" serif:id="#8e5d42ff">
        <path d="M361.87,218.86C366.84,215.06 371.67,210.96 377.34,208.23C367.08,224.09 355.31,239.07 347.09,256.16C346.42,256.77 345.76,257.38 345.1,257.99C337.2,261.96 329.37,266.12 322.01,271.03C319.17,273.13 315.85,275.46 315.07,279.13C314.12,287.65 320.28,295.88 317.28,304.32C314.36,310.66 309.03,315.43 305.1,321.11C291.83,339.45 286.3,362.63 287.63,385.06C288.32,399.46 291.41,413.57 293.38,427.82C293.91,431.3 293.52,434.89 292.22,438.17C288.94,446.8 285.05,455.66 285.63,465.1C286.24,475.5 287.78,485.83 287.79,496.27C283.59,473.38 280.46,450.22 279.78,426.93C279.1,411.94 278.55,396.94 277.93,381.95C277.04,371.2 276.66,360.43 276.38,349.66C276.47,344.8 278.2,340.18 279.53,335.56C288.24,307.95 302.13,281.89 320.58,259.55C333.13,244.84 346.55,230.72 361.87,218.86Z" style="fill:rgb(142,93,66);fill-rule:nonzero;"/>
        <path d="M653.72,215.17C656.94,217.23 659.91,219.67 662.74,222.24C668.85,227.78 675.13,233.17 680.83,239.16C688.33,246.84 694.26,255.84 700.44,264.57C709.9,279.62 717.8,295.73 723.39,312.62C724.73,316.99 726.51,321.29 726.97,325.88C726.5,341.3 729.92,356.42 731.35,371.71C732.42,381.44 733.44,391.2 733.36,401.01C733.28,419.08 733.75,437.18 731.96,455.2C730.65,453.37 729.38,451.54 728.07,449.74C728.44,442 724.67,435.03 722.02,428C717.38,416.24 711.18,405.19 706.45,393.47C704.65,389.13 702.47,384.48 703.66,379.67C705.38,372.14 708.06,364.83 709.18,357.16C711.86,338.51 709.85,319.07 702.4,301.68C700.6,295.71 697.69,290.16 694.09,285.08C689.42,274.42 683.21,264.54 677.62,254.36C672.56,245.29 666.23,237.03 660.73,228.23C658.09,224.05 656.07,219.52 653.72,215.17Z" style="fill:rgb(142,93,66);fill-rule:nonzero;"/>
    </g>
    <g id="_-a97759ff" serif:id="#a97759ff">
        <path d="M531.89,269.86C570.55,265.27 609.38,254.77 642.03,232.9C649.76,238.78 656.44,245.86 663.28,252.72C669.71,259.3 676.46,265.57 682.43,272.58C686.07,276.97 690.02,281.09 694.09,285.08C697.69,290.16 700.6,295.71 702.4,301.68C701.52,323.74 696.71,345.45 690.56,366.58C689.14,371.81 687.29,377.45 689.11,382.83C691.23,389.11 696.65,393.36 700.13,398.83C704.73,406.01 707.46,414.2 709.55,422.42C710.52,426.32 712.18,430.08 714.85,433.13C719.31,438.3 723.49,443.7 727.62,449.14C723.91,452.04 720.02,454.78 715.66,456.63C710.95,458.84 705.7,460.25 701.71,463.73C699.71,465.26 700.04,468.02 700.88,470.09C702.66,474.68 705.54,478.72 707.98,482.97C702.91,482.85 697.8,482.14 692.75,482.8C690.23,483.03 687.81,484.82 687.43,487.41C686.98,490.59 688.23,493.69 689.4,496.59C692.91,504.59 697.54,512.05 700.82,520.16C707.51,536.1 709.41,553.69 708.67,570.85C707.78,583.15 706.78,595.7 702.34,607.32C699.03,616.25 692.78,623.59 686.91,630.92C683.69,635.01 679.51,638.25 676.44,642.46C674.5,645.17 675.77,648.65 676.28,651.61C679.18,662.83 680.57,674.39 680.98,685.96C681.36,696.14 679.57,706.21 678.24,716.27C677.76,717.43 677.3,718.59 676.84,719.77C669.47,729.74 662.41,739.95 654.57,749.57C642.71,764.25 631.17,779.21 618.94,793.6C617.72,792.97 616.5,792.34 615.29,791.73C619.87,783.91 625.07,776.48 629.61,768.63C632.59,763.46 636.41,758.36 636.59,752.14C632.46,756.74 629.8,762.36 626.56,767.57C621.47,775.44 616.45,783.36 611.09,791.06C607.01,796.91 603.48,803.29 598.07,808.06C586.42,818.92 571.36,825.2 556.12,829.14C534.59,835.76 511.53,837.35 489.29,833.78C476.34,831.86 463.52,828.3 451.99,822.01C444.82,818.01 438.33,812.94 431.3,808.71C425.43,805.07 418.94,802 414.48,796.54C405.62,785.32 397.97,773.15 391.72,760.29C390.28,757.13 387.93,754.54 385.25,752.38C390.52,768.05 400.12,781.81 406.06,797.19C402.02,797.6 398.14,796.3 395.14,793.6C395.29,790.86 395.09,787.98 393.33,785.74C381.51,768.67 369.99,751.36 359.66,733.34C354.41,724.28 350.61,714.5 345.96,705.14C345.32,705.21 344.04,705.34 343.41,705.41C343.14,707.31 342.87,709.22 342.69,711.15C341.33,701.48 342.23,691.7 343.07,682.04C343.65,675.41 344.8,668.85 346.43,662.4C347.48,658.09 348.52,653.15 345.8,649.21C337.95,637.27 328.57,626.07 323.39,612.59C320.7,605.33 318.29,597.82 317.88,590.04C317.13,575.19 318.88,560.38 320.71,545.68C322.05,535.61 323.08,525.46 325.54,515.58C326.42,511.25 327.94,506.91 327.53,502.45C327.31,502.14 326.88,501.52 326.66,501.21C323.17,500.88 319.69,501.44 316.23,501.82C318.71,494.45 321.98,487.31 323.74,479.71C324.43,476.67 324.63,472.24 321.06,470.95C315.18,469.32 308.95,469.82 302.94,468.97C303.04,455.82 310.15,444.02 310.87,431.01C310.79,421.29 298.85,418.31 296.23,409.77C295.49,405.34 296.63,400.89 297.5,396.57C301.69,377.92 305.85,359.21 312.07,341.11C321.56,312.84 332.45,285.01 345.1,257.99C345.76,257.38 346.42,256.77 347.09,256.16C353.85,252.58 360.4,248.61 367.07,244.88C399.11,262.5 435.8,269.68 471.99,271.79C491.97,272.54 512.03,272.35 531.89,269.86M387.41,274.39C380.46,275.22 373.43,275.9 366.68,277.8C359.99,279.9 357.45,287.15 355.07,293.03C352.2,301.48 347.44,309.14 344.63,317.62C342.75,323.17 341.16,328.81 339.4,334.41C338.47,337.76 337.36,341.3 338.08,344.81C339.06,348.1 342.93,349.08 345.98,348.87C355.74,348.48 365.18,345.22 374.98,345.19C377.95,344.87 381.78,345.55 383.81,342.79C386.39,339.37 386.97,334.98 387.94,330.93C391.04,315.8 397.03,301.5 401.95,286.92C402.9,283.65 404.26,279.32 401.32,276.66C397.43,273.54 392.06,274.13 387.41,274.39M398.12,404.17C389.74,406.32 381.17,407.86 373.1,411.05C359.4,416.52 346.24,423.53 334.58,432.62C329.3,436.83 324.18,441.43 320.67,447.27C324.34,448.68 327.75,446.48 331.03,445.07C337.99,441.85 345.46,440 352.81,437.89C361.79,437.65 370.78,437.35 379.75,436.83C393.75,436.46 407.76,435.81 421.76,436.45C430.28,436.98 438.87,436.44 447.29,438.06C438.69,438.44 430.07,438.12 421.48,438.64C404.74,440.14 387.82,442.59 372.26,449.24C363.77,452.57 355.82,458.18 351.29,466.25C346.7,469.27 342.36,473.27 340.67,478.66C340.41,479.65 339.85,481.36 341.34,481.69C342.74,482.33 344.19,481.01 345.51,480.58C354.39,476.48 360.28,468.05 369.25,464.1C365.01,468.21 360.88,472.45 356.89,476.82C353.45,478.97 350.39,481.66 347.65,484.65C345.55,486.94 343.27,489.37 342.59,492.51C341.98,494.62 343.65,497.38 346.05,496.95C352.04,496.7 358.02,496.1 364.03,496.06C366.16,496.25 369.36,494.78 368.49,492.2C367.32,486.81 365.64,481.53 364.89,476.05C365.81,475.25 366.72,474.44 367.63,473.63C367.38,477.14 366.78,480.75 367.78,484.2C368.89,488.48 371.93,491.82 374.54,495.25C372.5,495.55 370.49,496.01 368.51,496.52C370.52,497.46 372.69,497.99 374.93,497.95C384.96,498.14 395.02,498.18 405,497.02C416.52,495.73 428.21,495.43 439.49,492.53C440.79,493.6 442.23,494.84 444.05,494.69C448.39,494.62 452.65,493.65 456.91,492.93C459.12,492.38 461.73,492.14 463.35,490.34C464.32,488.12 464,485.58 464.27,483.22C460.62,476.89 453.17,474.48 447.27,470.8C435.86,463.97 423.55,458.66 410.58,455.63C413.88,454.73 417.15,453.63 420.59,453.45C432.21,452.65 444.33,450.43 455.63,454.39C460.52,456.05 463.93,460.1 468.11,462.88C469.61,463.91 471.51,463.21 473.19,463.23C473.13,459.76 473.11,456.02 470.9,453.13C466.59,445.95 458.68,441.98 450.76,440.14C453.59,440.1 456.41,439.77 459.19,439.23C464.32,436.19 470.4,436.21 476.11,435.27C477.98,434.72 478.09,432.39 478.83,430.89C480.35,425.56 486.41,421.58 484.36,415.51C481.71,415.9 479.08,416.33 476.44,416.79C476.67,415.51 476.89,414.22 477.12,412.94C470.25,410.04 462.78,409.22 455.61,407.34C436.77,403.56 417.23,401.05 398.12,404.17M557.06,409.02C554.76,410.16 552.35,408.58 550.09,408.11C549.32,408.83 548.57,409.56 547.82,410.3C545.84,409.77 543.84,409.29 541.85,408.86C541.75,410.54 541.07,412.4 541.97,413.98C544.12,418.02 547.74,420.94 550.67,424.36C553.9,427.95 555.21,432.89 558.88,436.14C559.61,438.09 559.97,440.88 562.39,441.46C566.91,441.75 571.35,440.47 575.84,440.05C569.81,446.46 561.18,449.39 554.98,455.6C547.34,461.33 540.13,467.88 535.01,476.02C531.47,481.62 529.97,488.46 530.92,495.03C532.39,506.46 535.94,517.48 538.28,528.75C539.07,531.56 539.27,534.75 541.11,537.13C542.71,537.63 543.28,537.08 542.81,535.46C545.74,528.47 543.06,520.91 543.64,513.64C544.22,506.33 545,498.96 546.88,491.85C548.89,484.16 554.07,477.95 558.71,471.7C563.19,465.59 568.99,460.66 574.14,455.14C578.35,450.63 584.68,448.5 590.75,448.45C598.67,448.9 606.38,450.94 614,453.03C623.13,455.53 632.6,456.52 641.65,459.31C648.8,461.56 656.56,462.72 662.7,467.3C665.81,469.45 668.14,472.54 671.29,474.64C672.69,474.5 674.05,474.14 675.42,473.8C675.26,472.13 675.45,470.2 674.07,468.96C669.32,463.9 663.36,460.18 657.63,456.35C645.39,448.32 631.69,442.9 617.72,438.74C622.48,438.39 627.25,438.15 632.01,438.68C643.03,439.15 654.07,439.55 665.01,441.06C668.76,441.62 672.56,441.76 676.35,441.62C685.43,443.33 694.02,447.21 703.26,448.08C703.18,446.53 703.95,444.62 702.6,443.44C700.16,440.66 697.42,438.16 694.7,435.67C696.11,434.47 697.66,433.36 698.73,431.82C697.84,428.2 694.03,426.49 690.88,425.22C685.37,423.42 679.73,421.33 673.84,421.68C646.76,409.17 616.65,404.4 587,404.25C576.91,404.48 566.37,404.63 557.06,409.02M508.36,456.34C504.64,457.37 503.78,461.73 502.94,464.97C499.23,484.46 501.63,504.34 502.85,523.95C503.3,528.81 503.16,533.8 504.54,538.53C505.47,542.07 511.49,542.02 512.51,538.57C513.32,535.45 513.1,532.18 513.19,528.99C514.22,510.68 513.65,492.34 513.9,474.02C513.92,469.14 514.71,464.17 513.68,459.35C513.16,457.07 510.55,455.71 508.36,456.34M593.58,460.54C587.79,462.63 582.77,466.28 577.71,469.71C572.29,473.47 566.49,476.89 562.15,481.97C559.37,484.16 556.3,486.5 555.18,490.01C555.43,493.46 559.31,493.67 561.94,494.12C568.02,494.77 573.95,497.58 580.14,496.18C596.04,498.66 612.1,496.6 628.04,495.69C636.69,495.38 645.34,495.75 654,495.77C656.82,495.73 659.88,496.09 662.34,494.4C664.96,494.34 667.56,494.06 670.18,493.85C670.2,491.95 670.23,490.06 670.25,488.17L669.39,487.98C666.09,484.49 662.35,481.45 659.19,477.84C655.74,473.97 652.72,469.62 648.39,466.66C640.65,461.28 631.3,458.77 622.02,457.83C612.5,456.82 602.63,457.19 593.58,460.54M420.88,508.83C416.6,509.69 412.19,509.85 407.87,509.22C398.6,507.91 389.1,506.56 379.8,508.39C386.41,509.74 393.26,510 399.64,512.38C409.32,515.74 419.98,518.42 430.06,515.01C435.38,513.13 441.8,509.37 441.22,502.83C434.17,503.91 427.9,507.65 420.88,508.83M645.74,508.73C638.82,509.86 632.32,512.91 625.28,513.34C614.42,513.73 604.29,508.86 593.59,508.06C594.83,509.9 596.25,511.7 598.29,512.72C602.58,515.12 606.86,517.57 611.33,519.64C616.39,521.96 622.46,523.19 627.7,520.68C634.73,517.43 641.32,513.19 648.71,510.74C655.02,508.41 661.8,507.96 668.25,506.13C660.64,505.66 653.19,507.53 645.74,508.73M567.16,552.78C569.7,556.57 573.23,559.8 574.49,564.36C575.45,565.43 576.45,566.5 577.44,567.57C578.01,571.77 579.77,576.18 578.37,580.38C577.3,583.54 573.32,582.97 570.71,583.61C562.88,582.25 554.99,580.11 546.97,581.07C541.21,581.64 536.19,584.75 530.98,587C528.07,588.38 524.93,589.39 522.33,591.33C517.28,592.06 512.25,593.26 507.12,593.13C502.55,588.61 496.65,585.87 491.04,582.91C485.79,580.16 479.9,579.03 474.02,578.86C475.23,579.68 476.44,580.5 477.66,581.33C477.51,582.18 477.36,583.04 477.2,583.9C473.44,584.47 469.66,585.38 466.28,587.17C462.62,587.28 459.01,587.88 455.39,588.29C452.01,588.75 448.79,587.4 445.64,586.41C443.03,582.49 444.22,577.41 446.67,573.73C446.66,577.45 446.46,581.98 449.37,584.78C452.11,585.18 454.79,584.2 457.39,583.46C461.91,581.99 466.49,580.74 471.05,579.42C465.42,576.26 458.92,577.09 452.8,577.86C454.26,574.2 456.23,570.77 458.73,567.72C460.34,565.38 462.99,562.64 461.47,559.61C459.62,559.06 457.71,558.81 455.81,558.52C456.83,557.4 457.26,555.9 456.52,554.51C454.2,553.35 451.7,554.45 449.71,555.72C444.57,559.07 440.29,564.18 439.24,570.37C437.85,572.43 436.71,574.65 435.75,576.94C435.63,577.26 435.4,577.92 435.29,578.24C430.64,581.55 426.91,585.89 422.63,589.62C414.3,596.66 405.43,603.04 397.24,610.24C389.55,617.67 382.55,625.97 377.42,635.38C375.96,637.82 376.05,640.71 376.08,643.45C379.45,639.2 380.96,633.72 384.92,629.91C388.87,625.69 394.53,623.94 399.65,621.61C404.54,619.46 409.06,616.55 413.24,613.24C421.29,606.83 429.22,600.13 435.74,592.12C439.74,597.41 445.81,600.53 451.63,603.42C467.61,611.04 482.36,620.96 496.57,631.44C504.9,637.51 514.61,642.93 525.28,642.19C520.56,642.74 515.88,644.04 511.11,643.79C507.06,643.01 503.78,640.2 499.84,639.09C494.4,637.25 488.77,639.32 483.41,640.42C471.93,642.81 460.55,645.65 449.08,648.09C438.19,650.42 427.57,653.8 416.85,656.75C414.11,657.51 411.54,658.75 409.09,660.18C411.49,660.81 414.01,661.24 416.44,660.46C434.46,655.72 452.62,651.07 471.18,649.07C460.26,652.61 448.64,653.9 438.02,658.31C426.95,660.18 415.86,661.97 404.83,664.1C405.33,659.88 406.6,655.73 406.48,651.47C404.74,647.07 397.72,648.43 397.05,652.97C395.88,655.66 394.84,658.53 395.25,661.52C392.71,666.37 393.76,671.87 394.24,677.05C393.96,677.93 393.67,678.82 393.37,679.71C393.91,680.21 394.99,681.2 395.53,681.7C397.81,684.78 400.15,690.44 404.92,688.47C402.63,683.47 401.45,678 401.72,672.49C406.7,671.41 409.63,676.16 412.93,678.95C415.24,685.7 419.82,691.28 424.24,696.76C427.81,701.15 431.56,705.43 435.89,709.1C450.5,721.82 467.52,732.31 486.45,737.07C486.3,737.44 486,738.18 485.85,738.55C481.17,737.91 476.57,736.77 471.91,736.01C463.12,734.47 454.64,731.52 445.83,730.12C450.11,734.75 455.63,737.94 461.18,740.82C467.49,743.89 474.19,746.62 481.31,746.69C483.12,747.19 484.95,747.62 486.8,748C487.32,749.76 487.17,752 488.77,753.24C492.16,755.98 496.2,757.75 499.84,760.13C504.45,762.86 508.7,766.29 513.7,768.31C517.5,769.82 521.24,767.25 524.46,765.5C529.35,762.36 534.59,759.74 539.16,756.14C542.11,754.08 541.57,750.16 541.83,747.03C543.12,746.59 544.42,746.18 545.72,745.76C555.04,745.93 562.66,740.01 569.82,734.84C578.23,729.44 586.08,723.17 593.26,716.22C585.59,720.12 578.36,724.85 570.58,728.55C564.39,731.39 557.63,732.6 551.03,734.09C557.09,730.31 563.42,726.89 568.98,722.37C568.41,721.53 567.85,720.71 567.29,719.9C569.22,719.95 571.43,720.51 573.06,719.14C581.47,712.92 588.44,704.99 594.55,696.56C597.66,691.84 600.53,686.96 604.15,682.61C607.19,687.01 604.48,692.42 604.83,697.31C610.37,696.75 613.61,691.85 617.3,688.31C621.56,683.53 627.19,678.15 625.82,671.08C625.09,661.7 615.53,656.09 606.97,655.31C603.87,654.92 600.82,657.81 601.37,660.96C595.86,658.34 590.55,655.26 584.9,652.97C587.93,653.73 591.06,654.08 594.17,654.45C585.69,650.48 576.34,649.17 567.43,646.53C556.21,643.22 544.59,640.62 532.83,641.02C543.81,637.4 552.66,629.64 561.39,622.37C571.5,613.72 581.87,604.28 586.78,591.57C588.31,590.83 589.38,589.39 590.22,587.96C595.12,592.66 599.79,597.62 604.91,602.09C610.23,606.76 615.74,611.24 620.71,616.29C625.68,621.32 631.08,626.05 635.05,631.96C637.37,635.17 635.9,639.76 638.84,642.71C640.5,640.82 642.66,638.82 642.22,636.03C641.8,628.44 636.28,622.64 632.53,616.45C624.84,604.16 614.77,593.61 603.99,584.01C599.88,580.43 596.32,576.23 591.85,573.08C591.65,572.07 591.34,571.12 590.91,570.22C589.08,560.79 581.04,554.13 572.88,550.03C570.56,548.46 566.76,549.57 567.16,552.78M473.01,549.7C472.34,556.82 473.78,564.34 479,569.55C482.64,569.19 486.35,569.1 489.94,569.96C499.09,572.13 508.35,573.95 517.27,577C510.13,577.06 503.11,575.66 496.02,575.06C491.23,574.64 486.59,573.39 481.97,572.13C487.21,577.51 493.47,581.93 500.61,584.39C507.3,586.7 514.35,590.66 521.6,588.5C528.09,585.9 532.95,580.61 538.49,576.52C542.54,573.18 547.25,570.68 551.05,567.04C552,566.29 551.54,564.9 550.83,564.17C546.42,565.79 542.31,568.15 538.07,570.18C541.13,568.26 543.54,565.51 546.06,562.96C538.2,565.37 531.26,570.06 523.36,572.33C519.56,573.41 515.72,571.96 512.1,570.92C503.98,568.32 495.48,566.38 488.16,561.83C484,559.33 481.8,554.85 478.62,551.38C477.25,549.75 474.87,550.14 473.01,549.7M403.4,558.39C386.91,562.82 370.55,567.79 354,571.99C348.69,573.44 343.14,574.5 338.36,577.36C336.66,578.43 334.46,580.31 335.47,582.57C337,586.38 339.87,589.44 342.43,592.58C345.74,596.3 349.29,600.34 354.23,601.8C358.79,602.99 362.33,599.07 365.84,596.86C376.12,590.15 386.53,583.64 396.5,576.46C399.84,573.89 404.12,573.37 407.96,571.91C409.66,571.47 409.7,569.45 410.16,568.08C410.65,565.37 411.36,562.39 410.33,559.73C408.89,557.25 405.71,557.9 403.4,558.39M618.33,559.35C614.63,559.87 611.26,563.9 612.23,567.61C615.16,571.19 620.09,572.04 624.14,573.86C638.2,579.65 652.56,584.66 666.73,590.19C668.71,590.88 671.2,591.55 672.98,589.99C675.15,587.54 676.14,584.32 677.43,581.37C679,577.14 681.13,572.82 680.81,568.2C680.33,565.2 677.07,564.06 674.48,563.57C664.13,561.65 653.52,562.3 643.12,560.75C634.88,560.14 626.59,558.14 618.33,559.35M637.26,656.37C636.37,662.98 641.92,667.92 643.15,674C642.4,679.63 638.44,684.07 636.04,689.06C640.75,684.55 644.73,679.11 647.07,673C648.25,667.87 647.45,661.98 644.34,657.67C642.85,655.57 639.09,653.81 637.26,656.37Z" style="fill:rgb(169,119,89);fill-rule:nonzero;"/>
        <path d="M751.4,489.47C754.39,488.21 755.76,492.02 756.86,494.09C759.51,501.81 759.22,510.24 758.47,518.27C756.17,516.32 753.19,512.5 749.91,514.97C747.13,517.69 748.97,521.92 750,525.03C753.4,532.93 756.44,540.99 760.28,548.7C766.21,560.32 769.8,573.56 767.64,586.64C766.4,593.21 765.26,600.03 762.12,605.99C755.61,612.93 748.44,619.89 738.98,622.46C739.1,617.86 739.26,613.25 739.98,608.7C743.17,607.59 746.64,606.62 749.02,604.06C752.29,600.61 755.13,596.79 758.12,593.12C761.55,588.84 764.3,583.64 764.05,578.01C763.83,567.79 758.03,558.99 754.17,549.86C750.95,542.19 745.98,535.41 742.66,527.8C742.71,524.93 742.74,522.07 742.85,519.22C744.85,516.46 746.69,513.59 748.46,510.67C750.92,511 753.38,511.34 755.86,511.69C755.3,508.86 754.76,506.03 754.19,503.21C753.74,501.03 753.24,498.88 752.71,496.74C748.36,496.79 745.61,500.22 742.87,503.09C742.72,497.33 745.85,491.53 751.4,489.47Z" style="fill:rgb(169,119,89);fill-rule:nonzero;"/>
        <path d="M258.68,509.68C259.57,507.53 261.35,505.09 263.96,505.35C268.75,505.78 273.95,507.02 277.3,510.75C278,514.98 278.13,519.28 278.56,523.55C275.97,520.19 273.5,515.71 269.02,514.81C265.32,515.5 264.43,520.12 262.83,523C261.95,525.01 261.08,527.03 260.44,529.13C258.81,522.88 256.02,516.04 258.68,509.68Z" style="fill:rgb(169,119,89);fill-rule:nonzero;"/>
        <path d="M260.37,531.45C263.73,531.5 267.42,530.8 270.45,532.65C273.86,534.72 277.24,536.88 281.02,538.23C281.57,541.79 282.2,545.34 282.51,548.94C280.79,553.94 274.72,553.73 270.72,555.84C266.14,557.55 263.87,562.29 262.84,566.76C261.37,573.03 259.47,579.19 256.99,585.13C256.87,582.7 256.75,580.26 256.75,577.83C257.83,563.19 270.97,552.74 272.41,538.22C268.13,539.51 266.02,543.6 263.6,546.98C263.11,541.7 262.1,536.47 260.37,531.45Z" style="fill:rgb(169,119,89);fill-rule:nonzero;"/>
        <path d="M281.28,566.16C282.1,564.99 282.97,563.86 283.84,562.73C284.06,564.24 284.29,565.75 284.51,567.28C285.42,574.51 285.07,581.81 285.44,589.08C285.5,593.69 286.22,598.28 286.19,602.9C286.12,604.29 286.04,605.69 285.94,607.1C284.77,605.4 283.63,603.71 282.51,601.99C282.72,600.25 283.34,598.47 282.95,596.73C282.12,594.59 280.58,592.84 279.17,591.07C277.16,588.5 274.59,586.16 273.52,582.99C274.87,576.94 278.13,571.44 281.28,566.16Z" style="fill:rgb(169,119,89);fill-rule:nonzero;"/>
        <path d="M743.17,563.64C743.67,563.61 744.65,563.56 745.14,563.54C747.12,570.27 747.2,577.45 745.23,584.2C744.04,586.09 742.78,587.93 741.68,589.88L741.36,590.57C741.15,581.55 742.95,572.64 743.17,563.64Z" style="fill:rgb(169,119,89);fill-rule:nonzero;"/>
        <path d="M256.84,587.93C258.67,592.02 260.28,596.31 263.22,599.77C267.57,604.84 272.91,609.09 278.93,612.01C282.39,613.69 285.92,615.64 288,619.02C288.51,622.41 288.63,625.85 289.09,629.25C285.39,630.39 281.18,632.79 277.39,630.65C270.58,626.82 266.41,619.75 263.1,612.91C262.16,610 261.93,606.89 260.8,604.04C259.31,600.14 257.18,596.36 256.79,592.13C256.79,590.72 256.81,589.32 256.84,587.93Z" style="fill:rgb(169,119,89);fill-rule:nonzero;"/>
        <path d="M342.91,712.91C347.85,729.14 357.4,743.28 366.79,757.2C371.71,764.94 377.47,772.11 381.94,780.14C369.99,767.2 359.76,752.85 349.06,738.9C348.36,737.61 347.66,736.33 346.97,735.06C345.27,727.75 343.9,720.35 342.91,712.91Z" style="fill:rgb(169,119,89);fill-rule:nonzero;"/>
    </g>
    <g id="_-a06646ff" serif:id="#a06646ff">
        <path d="M322.01,271.03C329.37,266.12 337.2,261.96 345.1,257.99C332.45,285.01 321.56,312.84 312.07,341.11C305.85,359.21 301.69,377.92 297.5,396.57C296.63,400.89 295.49,405.34 296.23,409.77C298.85,418.31 310.79,421.29 310.87,431.01C310.15,444.02 303.04,455.82 302.94,468.97C308.95,469.82 315.18,469.32 321.06,470.95C324.63,472.24 324.43,476.67 323.74,479.71C321.98,487.31 318.71,494.45 316.23,501.82C319.69,501.44 323.17,500.88 326.66,501.21C326.88,501.52 327.31,502.14 327.53,502.45C327.94,506.91 326.42,511.25 325.54,515.58C323.08,525.46 322.05,535.61 320.71,545.68C318.88,560.38 317.13,575.19 317.88,590.04C318.29,597.82 320.7,605.33 323.39,612.59C328.57,626.07 337.95,637.27 345.8,649.21C348.52,653.15 347.48,658.09 346.43,662.4C344.8,668.85 343.65,675.41 343.07,682.04C342.23,691.7 341.33,701.48 342.69,711.15C342.74,711.59 342.85,712.47 342.91,712.91C343.9,720.35 345.27,727.75 346.97,735.06C337.28,721.84 329.75,707.22 322.35,692.65C317.82,682.53 312.25,672.65 310.33,661.6C306.5,641.31 304.18,620.79 301.67,600.31C299.55,582.77 298.09,565.15 295.19,547.72C293.36,530.48 289.98,513.46 287.79,496.27C287.78,485.83 286.24,475.5 285.63,465.1C285.05,455.66 288.94,446.8 292.22,438.17C293.52,434.89 293.91,431.3 293.38,427.82C291.41,413.57 288.32,399.46 287.63,385.06C286.3,362.63 291.83,339.45 305.1,321.11C309.03,315.43 314.36,310.66 317.28,304.32C320.28,295.88 314.12,287.65 315.07,279.13C315.85,275.46 319.17,273.13 322.01,271.03Z" style="fill:rgb(160,102,70);fill-rule:nonzero;"/>
        <path d="M593.9,434.47C621.51,433.62 649.59,433.96 676.35,441.62C672.56,441.76 668.76,441.62 665.01,441.06C654.07,439.55 643.03,439.15 632.01,438.68C627.25,438.15 622.48,438.39 617.72,438.74C609.84,436.99 601.86,435.8 593.9,434.47Z" style="fill:rgb(160,102,70);fill-rule:nonzero;"/>
        <path d="M558.88,436.14C565.93,438.03 573.05,435.57 580.13,435.26C586.86,434.73 593.51,436.11 600.1,437.3C594.27,439.45 588.59,442.1 583.65,445.93C590.87,443.39 598.2,440.69 605.98,440.8C616.43,440.07 626.14,444.6 635.56,448.46C650.14,454.73 662.59,464.68 675.42,473.8C674.05,474.14 672.69,474.5 671.29,474.64C668.14,472.54 665.81,469.45 662.7,467.3C656.56,462.72 648.8,461.56 641.65,459.31C632.6,456.52 623.13,455.53 614,453.03C606.38,450.94 598.67,448.9 590.75,448.45C584.68,448.5 578.35,450.63 574.14,455.14C568.99,460.66 563.19,465.59 558.71,471.7C554.07,477.95 548.89,484.16 546.88,491.85C545,498.96 544.22,506.33 543.64,513.64C543.06,520.91 545.74,528.47 542.81,535.46C540.58,522.03 537.22,508.66 537.05,494.98C536.93,490.07 538.52,485.27 541.18,481.19C546.5,472.72 553.33,465.26 558.18,456.48C557.38,456.26 555.78,455.82 554.98,455.6C561.18,449.39 569.81,446.46 575.84,440.05C571.35,440.47 566.91,441.75 562.39,441.46C559.97,440.88 559.61,438.09 558.88,436.14Z" style="fill:rgb(160,102,70);fill-rule:nonzero;"/>
        <path d="M408.82,443.35C422.62,440.73 436.76,440.54 450.76,440.14C458.68,441.98 466.59,445.95 470.9,453.13C473.11,456.02 473.13,459.76 473.19,463.23C471.51,463.21 469.61,463.91 468.11,462.88C463.93,460.1 460.52,456.05 455.63,454.39C444.33,450.43 432.21,452.65 420.59,453.45C417.15,453.63 413.88,454.73 410.58,455.63C401.63,454.76 392.38,453.98 383.63,456.61C378.37,458.08 373.72,461.04 369.25,464.1C360.28,468.05 354.39,476.48 345.51,480.58C344.19,481.01 342.74,482.33 341.34,481.69C339.85,481.36 340.41,479.65 340.67,478.66C342.36,473.27 346.7,469.27 351.29,466.25C350.89,467.99 350.6,469.75 350.31,471.51C355.87,467.02 360.09,461.02 366.17,457.17C374.46,451.96 383.89,448.75 393.37,446.5C407.67,444.74 422.09,446.94 436.28,448.78C427.68,444.76 418.11,444.23 408.82,443.35Z" style="fill:rgb(160,102,70);fill-rule:nonzero;"/>
        <path d="M727.62,449.14L728.07,449.74C729.38,451.54 730.65,453.37 731.96,455.2C731.51,466.46 730.84,477.72 730.41,488.99C730.01,511.92 729.26,534.85 727.82,557.74C725.82,577.7 722.69,597.51 719.27,617.26C716.86,630.51 713.04,643.43 709.28,656.34C706.93,664.29 705.09,672.54 700.69,679.68C693.25,691.9 686.58,704.62 678.24,716.27C679.57,706.21 681.36,696.14 680.98,685.96C680.57,674.39 679.18,662.83 676.28,651.61C675.77,648.65 674.5,645.17 676.44,642.46C679.51,638.25 683.69,635.01 686.91,630.92C692.78,623.59 699.03,616.25 702.34,607.32C706.78,595.7 707.78,583.15 708.67,570.85C709.41,553.69 707.51,536.1 700.82,520.16C697.54,512.05 692.91,504.59 689.4,496.59C688.23,493.69 686.98,490.59 687.43,487.41C687.81,484.82 690.23,483.03 692.75,482.8C697.8,482.14 702.91,482.85 707.98,482.97C705.54,478.72 702.66,474.68 700.88,470.09C700.04,468.02 699.71,465.26 701.71,463.73C705.7,460.25 710.95,458.84 715.66,456.63C720.02,454.78 723.91,452.04 727.62,449.14Z" style="fill:rgb(160,102,70);fill-rule:nonzero;"/>
        <path d="M443.29,472.83C450.4,476.07 457.3,479.7 464.27,483.22C464,485.58 464.32,488.12 463.35,490.34C461.73,492.14 459.12,492.38 456.91,492.93C452.65,493.65 448.39,494.62 444.05,494.69C442.23,494.84 440.79,493.6 439.49,492.53C439.11,492.21 438.36,491.56 437.98,491.24C442.25,486.12 444.05,479.42 443.29,472.83Z" style="fill:rgb(160,102,70);fill-rule:nonzero;"/>
        <path d="M562.15,481.97C568.85,482.49 573.95,477.28 579.73,474.76C579.66,477.81 579.4,480.91 579.97,483.94C580.56,487.08 582.53,489.68 584.2,492.31C582.04,492.6 579.91,493.03 577.78,493.43C578.55,494.35 579.34,495.26 580.14,496.18C573.95,497.58 568.02,494.77 561.94,494.12C559.31,493.67 555.43,493.46 555.18,490.01C556.3,486.5 559.37,484.16 562.15,481.97Z" style="fill:rgb(160,102,70);fill-rule:nonzero;"/>
        <path d="M352.07,485.98C356.44,482.79 360.81,479.6 364.89,476.05C365.64,481.53 367.32,486.81 368.49,492.2C369.36,494.78 366.16,496.25 364.03,496.06C358.02,496.1 352.04,496.7 346.05,496.95C343.65,497.38 341.98,494.62 342.59,492.51C343.27,489.37 345.55,486.94 347.65,484.65C350.39,481.66 353.45,478.97 356.89,476.82C354.55,479.52 352.27,482.26 349.98,485C350.5,485.25 351.55,485.74 352.07,485.98Z" style="fill:rgb(160,102,70);fill-rule:nonzero;"/>
        <path d="M653.37,477.8C657.95,482.17 662.8,487.08 669.39,487.98L670.25,488.17C670.23,490.06 670.2,491.95 670.18,493.85C667.56,494.06 664.96,494.34 662.34,494.4C653.75,493.86 645.14,493.76 636.54,493.56L635.96,493.17C639.48,493.03 643.2,493.93 646.61,492.78C651.91,489.84 652.98,483.3 653.37,477.8Z" style="fill:rgb(160,102,70);fill-rule:nonzero;"/>
        <path d="M420.88,508.83C427.9,507.65 434.17,503.91 441.22,502.83C441.8,509.37 435.38,513.13 430.06,515.01C419.98,518.42 409.32,515.74 399.64,512.38C393.26,510 386.41,509.74 379.8,508.39C389.1,506.56 398.6,507.91 407.87,509.22C412.19,509.85 416.6,509.69 420.88,508.83Z" style="fill:rgb(160,102,70);fill-rule:nonzero;"/>
        <path d="M749.75,505.13C751.23,504.5 752.71,503.86 754.19,503.21C754.76,506.03 755.3,508.86 755.86,511.69C753.38,511.34 750.92,511 748.46,510.67C746.69,513.59 744.85,516.46 742.85,519.22C742.55,515.36 744.42,511.96 746.83,509.11C747.8,507.79 748.78,506.46 749.75,505.13Z" style="fill:rgb(160,102,70);fill-rule:nonzero;"/>
        <path d="M645.74,508.73C653.19,507.53 660.64,505.66 668.25,506.13C661.8,507.96 655.02,508.41 648.71,510.74C641.32,513.19 634.73,517.43 627.7,520.68C622.46,523.19 616.39,521.96 611.33,519.64C606.86,517.57 602.58,515.12 598.29,512.72C596.25,511.7 594.83,509.9 593.59,508.06C604.29,508.86 614.42,513.73 625.28,513.34C632.32,512.91 638.82,509.86 645.74,508.73Z" style="fill:rgb(160,102,70);fill-rule:nonzero;"/>
        <path d="M268.13,520.66C270.36,523.04 272.44,525.64 275.15,527.52C276.47,526.9 277.66,526.06 278.89,525.27C279.7,529.57 280.37,533.9 281.02,538.23C277.24,536.88 273.86,534.72 270.45,532.65C267.42,530.8 263.73,531.5 260.37,531.45C260.39,530.87 260.42,529.71 260.44,529.13C261.08,527.03 261.95,525.01 262.83,523C262.93,525.58 263.23,528.15 263.53,530.73C265.46,527.57 266.89,524.14 268.13,520.66Z" style="fill:rgb(160,102,70);fill-rule:nonzero;"/>
        <path d="M742.12,545.21C741.97,539.4 742.31,533.59 742.66,527.8C745.98,535.41 750.95,542.19 754.17,549.86C758.03,558.99 763.83,567.79 764.05,578.01C764.3,583.64 761.55,588.84 758.12,593.12C755.13,596.79 752.29,600.61 749.02,604.06C746.64,606.62 743.17,607.59 739.98,608.7C740.24,603.93 740.76,599.16 740.55,594.37C742.43,595.25 744.56,597.19 746.69,595.79C753.71,592.31 757.14,584.32 757.7,576.85C758.39,570.12 755.43,563.87 753.45,557.63C752.24,554.33 751.32,550.76 748.98,548.07C747.05,546.44 744.43,546.04 742.12,545.21Z" style="fill:rgb(160,102,70);fill-rule:nonzero;"/>
        <path d="M282.51,548.94C282.88,553.54 283.2,558.16 283.84,562.73C282.97,563.86 282.1,564.99 281.28,566.16C281.12,564.33 280.96,562.5 280.79,560.69C279.14,561.05 277.5,561.4 275.88,561.86C269.46,565.46 265.23,572.01 262.88,578.83C261.56,582.55 261.42,586.92 263.7,590.31C267.79,596.89 275.23,600.26 282.51,601.99C283.63,603.71 284.77,605.4 285.94,607.1C286.04,605.69 286.12,604.29 286.19,602.9C287.15,608.22 287.43,613.64 288,619.02C285.92,615.64 282.39,613.69 278.93,612.01C272.91,609.09 267.57,604.84 263.22,599.77C260.28,596.31 258.67,592.02 256.84,587.93C256.81,589.32 256.79,590.72 256.79,592.13C255.74,587.42 256.02,582.56 256.75,577.83C256.75,580.26 256.87,582.7 256.99,585.13C259.47,579.19 261.37,573.03 262.84,566.76C263.87,562.29 266.14,557.55 270.72,555.84C274.72,553.73 280.79,553.94 282.51,548.94Z" style="fill:rgb(160,102,70);fill-rule:nonzero;"/>
        <path d="M567.16,552.78C566.76,549.57 570.56,548.46 572.88,550.03C581.04,554.13 589.08,560.79 590.91,570.22C587.86,566.28 584.18,561.96 578.97,561.2C576.81,560.75 575.8,563.14 574.49,564.36C573.23,559.8 569.7,556.57 567.16,552.78Z" style="fill:rgb(160,102,70);fill-rule:nonzero;"/>
        <path d="M449.71,555.72C451.7,554.45 454.2,553.35 456.52,554.51C457.26,555.9 456.83,557.4 455.81,558.52C454.68,560.11 453.5,561.67 452.44,563.32C451.52,562.59 450.61,561.88 449.7,561.18C445.88,563.84 442.03,566.59 439.24,570.37C440.29,564.18 444.57,559.07 449.71,555.72Z" style="fill:rgb(160,102,70);fill-rule:nonzero;"/>
        <path d="M577.44,567.57C581.62,571.36 584.21,576.55 584.36,582.23C579.9,583.3 575.31,584.08 570.71,583.61C573.32,582.97 577.3,583.54 578.37,580.38C579.77,576.18 578.01,571.77 577.44,567.57Z" style="fill:rgb(160,102,70);fill-rule:nonzero;"/>
        <path d="M591.85,573.08C596.32,576.23 599.88,580.43 603.99,584.01C614.77,593.61 624.84,604.16 632.53,616.45C636.28,622.64 641.8,628.44 642.22,636.03C642.66,638.82 640.5,640.82 638.84,642.71C635.9,639.76 637.37,635.17 635.05,631.96C631.08,626.05 625.68,621.32 620.71,616.29C615.74,611.24 610.23,606.76 604.91,602.09C599.79,597.62 595.12,592.66 590.22,587.96C592.37,583.31 592.63,578.07 591.85,573.08Z" style="fill:rgb(160,102,70);fill-rule:nonzero;"/>
        <path d="M422.63,589.62C426.91,585.89 430.64,581.55 435.29,578.24C433.4,582.7 433.39,587.82 435.74,592.12C429.22,600.13 421.29,606.83 413.24,613.24C409.06,616.55 404.54,619.46 399.65,621.61C394.53,623.94 388.87,625.69 384.92,629.91C380.96,633.72 379.45,639.2 376.08,643.45C376.05,640.71 375.96,637.82 377.42,635.38C382.55,625.97 389.55,617.67 397.24,610.24C405.43,603.04 414.3,596.66 422.63,589.62Z" style="fill:rgb(160,102,70);fill-rule:nonzero;"/>
        <path d="M474.02,578.86C479.9,579.03 485.79,580.16 491.04,582.91C496.65,585.87 502.55,588.61 507.12,593.13C506.3,593.1 504.65,593.03 503.83,593C501.27,592.69 498.71,592.34 496.16,591.97C493.77,589.32 491.43,586.41 488.09,584.95C484.66,583.51 480.84,583.6 477.2,583.9C477.36,583.04 477.51,582.18 477.66,581.33C476.44,580.5 475.23,579.68 474.02,578.86Z" style="fill:rgb(160,102,70);fill-rule:nonzero;"/>
        <path d="M445.64,586.41C448.79,587.4 452.01,588.75 455.39,588.29C459.01,587.88 462.62,587.28 466.28,587.17C464.87,588.52 463.57,589.98 462.28,591.44C457.88,591.18 453.46,590.73 449.18,589.68C447.88,588.71 446.72,587.59 445.64,586.41Z" style="fill:rgb(160,102,70);fill-rule:nonzero;"/>
        <path d="M738.98,622.46C748.44,619.89 755.61,612.93 762.12,605.99C760.58,613.16 757.03,619.64 754.4,626.43C749.15,628.37 743.62,629.61 738,629.55C738.32,627.18 738.64,624.82 738.98,622.46Z" style="fill:rgb(160,102,70);fill-rule:nonzero;"/>
        <path d="M263.1,612.91C266.41,619.75 270.58,626.82 277.39,630.65C281.18,632.79 285.39,630.39 289.09,629.25C289.14,630.44 289.18,631.63 289.2,632.84C289.21,635.2 289.15,637.56 289.1,639.93C282.14,639.33 275.06,637.89 269.21,633.84C265.8,627.41 263.74,620.17 263.1,612.91Z" style="fill:rgb(160,102,70);fill-rule:nonzero;"/>
        <path d="M570.58,728.55C578.36,724.85 585.59,720.12 593.26,716.22C586.08,723.17 578.23,729.44 569.82,734.84C562.66,740.01 555.04,745.93 545.72,745.76C550.45,744.29 555.41,742.69 558.71,738.74C551.67,738.16 544.97,740.93 538,741.19C521.02,742 504.01,742.57 487.01,742.28C480.23,742.24 473.49,741.26 466.71,741.21C471.41,743.44 476.31,745.24 481.31,746.69C474.19,746.62 467.49,743.89 461.18,740.82C455.63,737.94 450.11,734.75 445.83,730.12C454.64,731.52 463.12,734.47 471.91,736.01C476.57,736.77 481.17,737.91 485.85,738.55C489.26,738.82 492.69,738.59 496.1,738.35C506.9,737.44 517.77,738.61 528.57,737.51C536.1,736.72 543.67,735.95 551.03,734.09C557.63,732.6 564.39,731.39 570.58,728.55Z" style="fill:rgb(160,102,70);fill-rule:nonzero;"/>
    </g>
    <g id="_-b4876bff" serif:id="#b4876bff">
        <path d="M387.41,274.39C392.06,274.13 397.43,273.54 401.32,276.66C404.26,279.32 402.9,283.65 401.95,286.92C397.03,301.5 391.04,315.8 387.94,330.93C386.97,334.98 386.39,339.37 383.81,342.79C381.78,345.55 377.95,344.87 374.98,345.19C365.18,345.22 355.74,348.48 345.98,348.87C342.93,349.08 339.06,348.1 338.08,344.81C337.36,341.3 338.47,337.76 339.4,334.41C341.16,328.81 342.75,323.17 344.63,317.62C347.44,309.14 352.2,301.48 355.07,293.03C357.45,287.15 359.99,279.9 366.68,277.8C373.43,275.9 380.46,275.22 387.41,274.39Z" style="fill:rgb(180,135,107);fill-rule:nonzero;"/>
        <path d="M673.84,421.68C679.73,421.33 685.37,423.42 690.88,425.22C694.03,426.49 697.84,428.2 698.73,431.82C697.66,433.36 696.11,434.47 694.7,435.67C688.35,430.18 681.34,425.45 673.84,421.68Z" style="fill:rgb(180,135,107);fill-rule:nonzero;"/>
        <path d="M508.36,456.34C510.55,455.71 513.16,457.07 513.68,459.35C514.71,464.17 513.92,469.14 513.9,474.02C513.65,492.34 514.22,510.68 513.19,528.99C513.1,532.18 513.32,535.45 512.51,538.57C511.49,542.02 505.47,542.07 504.54,538.53C503.16,533.8 503.3,528.81 502.85,523.95C501.63,504.34 499.23,484.46 502.94,464.97C503.78,461.73 504.64,457.37 508.36,456.34Z" style="fill:rgb(180,135,107);fill-rule:nonzero;"/>
        <path d="M473.01,549.7C474.87,550.14 477.25,549.75 478.62,551.38C481.8,554.85 484,559.33 488.16,561.83C495.48,566.38 503.98,568.32 512.1,570.92C515.72,571.96 519.56,573.41 523.36,572.33C531.26,570.06 538.2,565.37 546.06,562.96C543.54,565.51 541.13,568.26 538.07,570.18C531.66,573.7 524.84,577.51 517.27,577C508.35,573.95 499.09,572.13 489.94,569.96C486.35,569.1 482.64,569.19 479,569.55C473.78,564.34 472.34,556.82 473.01,549.7Z" style="fill:rgb(180,135,107);fill-rule:nonzero;"/>
        <path d="M403.4,558.39C405.71,557.9 408.89,557.25 410.33,559.73C411.36,562.39 410.65,565.37 410.16,568.08C409.7,569.45 409.66,571.47 407.96,571.91C404.12,573.37 399.84,573.89 396.5,576.46C386.53,583.64 376.12,590.15 365.84,596.86C362.33,599.07 358.79,602.99 354.23,601.8C349.29,600.34 345.74,596.3 342.43,592.58C339.87,589.44 337,586.38 335.47,582.57C334.46,580.31 336.66,578.43 338.36,577.36C343.14,574.5 348.69,573.44 354,571.99C370.55,567.79 386.91,562.82 403.4,558.39Z" style="fill:rgb(180,135,107);fill-rule:nonzero;"/>
        <path d="M452.44,563.32C453.5,561.67 454.68,560.11 455.81,558.52C457.71,558.81 459.62,559.06 461.47,559.61C462.99,562.64 460.34,565.38 458.73,567.72C456.23,570.77 454.26,574.2 452.8,577.86C458.92,577.09 465.42,576.26 471.05,579.42C466.49,580.74 461.91,581.99 457.39,583.46C454.79,584.2 452.11,585.18 449.37,584.78C446.46,581.98 446.66,577.45 446.67,573.73C448.56,570.24 450.44,566.74 452.44,563.32Z" style="fill:rgb(180,135,107);fill-rule:nonzero;"/>
        <path d="M618.33,559.35C626.59,558.14 634.88,560.14 643.12,560.75C653.52,562.3 664.13,561.65 674.48,563.57C677.07,564.06 680.33,565.2 680.81,568.2C681.13,572.82 679,577.14 677.43,581.37C676.14,584.32 675.15,587.54 672.98,589.99C671.2,591.55 668.71,590.88 666.73,590.19C652.56,584.66 638.2,579.65 624.14,573.86C620.09,572.04 615.16,571.19 612.23,567.61C611.26,563.9 614.63,559.87 618.33,559.35Z" style="fill:rgb(180,135,107);fill-rule:nonzero;"/>
        <path d="M483.41,640.42C488.77,639.32 494.4,637.25 499.84,639.09C503.78,640.2 507.06,643.01 511.11,643.79C515.88,644.04 520.56,642.74 525.28,642.19C527.8,641.87 530.32,641.45 532.83,641.02C544.59,640.62 556.21,643.22 567.43,646.53C576.34,649.17 585.69,650.48 594.17,654.45C591.06,654.08 587.93,653.73 584.9,652.97C570.17,648.94 555.31,644.72 540.01,643.74C530.19,643 521.15,647.65 511.55,648.6C504.01,649.44 497.14,644.68 489.61,645.56C483.38,646.2 477.32,647.89 471.18,649.07C452.62,651.07 434.46,655.72 416.44,660.46C414.01,661.24 411.49,660.81 409.09,660.18C411.54,658.75 414.11,657.51 416.85,656.75C427.57,653.8 438.19,650.42 449.08,648.09C460.55,645.65 471.93,642.81 483.41,640.42Z" style="fill:rgb(180,135,107);fill-rule:nonzero;"/>
        <path d="M343.41,705.41C344.04,705.34 345.32,705.21 345.96,705.14C350.61,714.5 354.41,724.28 359.66,733.34C369.99,751.36 381.51,768.67 393.33,785.74C395.09,787.98 395.29,790.86 395.14,793.6C389.9,790.01 385.56,785.31 381.94,780.14C377.47,772.11 371.71,764.94 366.79,757.2C357.4,743.28 347.85,729.14 342.91,712.91C342.85,712.47 342.74,711.59 342.69,711.15C342.87,709.22 343.14,707.31 343.41,705.41Z" style="fill:rgb(180,135,107);fill-rule:nonzero;"/>
    </g>
    <g id="_-6b4632ff" serif:id="#6b4632ff">
        <path d="M726.97,325.88C729.82,332.47 730.83,339.63 732.47,346.58C736.63,364.32 739.4,382.41 740.46,400.61C741.17,411.73 740.82,422.87 740.99,434C741.35,451.3 739.49,468.53 738.61,485.79C737.68,495.49 737.18,505.23 737.31,514.98C737.16,521.44 735.9,527.82 736.13,534.3C738.49,525.88 738.5,516.88 742.07,508.79C741.54,515.51 740.32,522.21 740.89,528.98C741.71,538.38 739.88,547.75 740.38,557.17C740.42,561.66 739.22,566.03 738.43,570.42C736.39,581.17 735.11,592.05 732.79,602.75C729.58,621.09 724.97,639.13 721.38,657.4C719.77,663.85 719.25,670.81 715.48,676.49C715.55,672.56 715.66,668.6 716.65,664.77C718.92,655.61 721.15,646.44 723.33,637.26C725.49,628.31 726.13,619.09 726.75,609.93C727.55,597.73 726.35,585.48 727.44,573.29C727.92,568.12 727.86,562.92 727.82,557.74C729.26,534.85 730.01,511.92 730.41,488.99C730.84,477.72 731.51,466.46 731.96,455.2C733.75,437.18 733.28,419.08 733.36,401.01C733.44,391.2 732.42,381.44 731.35,371.71C729.92,356.42 726.5,341.3 726.97,325.88Z" style="fill:rgb(107,70,50);fill-rule:nonzero;"/>
        <path d="M276.38,349.66C276.66,360.43 277.04,371.2 277.93,381.95C278.55,396.94 279.1,411.94 279.78,426.93C280.46,450.22 283.59,473.38 287.79,496.27C289.98,513.46 293.36,530.48 295.19,547.72C294.94,559.01 296.33,570.23 297.54,581.44C299.49,599.34 301.77,617.21 303.86,635.1C304.73,643.81 307.32,652.6 305.19,661.33C301.71,651.16 301.23,640.28 299.39,629.74C296.6,606.02 291.49,582.63 288.79,558.9C288.17,549.86 286.45,540.94 285.87,531.89C289.2,538.2 288.87,546.08 293.66,551.63C292.7,543.76 290.05,536.22 288.71,528.42C286.77,517.39 285.19,506.2 281.25,495.65C277.3,485.62 276.42,474.79 274.63,464.26C268.39,431.3 267.93,397.24 273.04,364.09C273.75,359.2 274.76,354.34 276.38,349.66Z" style="fill:rgb(107,70,50);fill-rule:nonzero;"/>
        <path d="M614.43,809.46C619.58,803.34 625.03,797.47 630.25,791.41C633,793.36 634.98,796.1 636.39,799.14C626.46,808.63 616.48,818.06 606.35,827.33C602.39,830.94 598.36,834.55 593.66,837.17C597.22,829.88 604.58,824.76 606.24,816.53C604.48,817.22 602.62,817.88 601.4,819.42C594.79,826.78 588.38,834.57 580.07,840.11C574.45,843.89 569.13,848.32 562.74,850.77C555.86,853.52 548.32,853.61 541.02,853.87C514.28,854.49 487.41,853.48 460.99,849.1C451.51,847.74 442.37,843.24 436.24,835.78C429.88,827.92 422.96,820.22 414.28,814.88C414.45,811.74 414.72,808.6 415.03,805.47C423.45,808.35 426.95,817.23 433.8,822.22C442.03,828.39 452.04,831.56 461.84,834.27C481.91,839.12 502.29,843.28 523,843.8C533.5,843.98 544.19,844.16 554.4,841.27C568.91,837.67 581,828.46 592.97,819.96C598.81,815.83 603.77,810.64 609.01,805.82C609.77,806.48 610.53,807.15 611.29,807.83C609.25,810.72 607.54,813.84 606.42,817.21C609.33,814.88 612.04,812.31 614.43,809.46Z" style="fill:rgb(107,70,50);fill-rule:nonzero;"/>
        <path d="M392.74,806.76C394.17,806.39 395.6,806.02 397.04,805.67C402.41,811.03 408.24,815.88 414.05,820.74C417.98,825.13 420.02,830.83 423.05,835.83C411.84,828.34 401.31,819.85 391.05,811.11C391.61,809.65 392.17,808.2 392.74,806.76Z" style="fill:rgb(107,70,50);fill-rule:nonzero;"/>
    </g>
    <g id="_-5b5854ff" serif:id="#5b5854ff">
        <path d="M393,412.89C410.97,408.08 430.09,407.88 448.29,411.51C445.37,411.95 442.51,412.64 439.61,413.12C430.76,412.22 421.98,414.19 413.15,414.37C402.24,415.53 391.21,415.79 380.46,418.09C380.5,417.49 380.57,416.29 380.61,415.69C384.71,414.62 388.86,413.78 393,412.89Z" style="fill:rgb(91,88,84);fill-rule:nonzero;"/>
        <path d="M568.66,412.18C572.71,411.28 576.86,410.91 581.01,410.88C593.17,410.69 605.38,411.06 617.45,412.62C628.74,414.73 640.37,415.73 651.16,419.89C648.4,419.92 645.64,420.11 642.89,420.28C645.27,421.18 647.64,422.12 650.07,422.92C644.54,422.69 639.02,422.03 633.73,420.36C627.66,418.5 621.29,418.55 615.02,418.22C610.36,418.03 606.08,416.11 601.69,414.76C598.65,415.16 595.95,416.76 593.24,418.08C587.08,421.33 580.58,423.92 574.71,427.71C572.11,429.46 569.13,430.49 566.08,431.11C571.82,427.02 577.96,423.56 584.19,420.3C586.29,419.24 587.96,417.55 589.49,415.79C586.48,416.05 583.51,416.67 580.66,417.67C580.46,416.62 580.27,415.57 580.08,414.54C576.27,413.78 572.49,412.86 568.66,412.18Z" style="fill:rgb(91,88,84);fill-rule:nonzero;"/>
    </g>
    <g id="_-484541ff" serif:id="#484541ff">
        <path d="M448.29,411.51C451.43,411.55 454.37,412.82 457.37,413.62C461.58,414.92 466.05,415.28 470.15,416.98C472.74,418.06 475.43,418.89 478.19,419.47C477.44,420.78 476.71,422.09 475.99,423.42C472.56,421.68 469.14,419.96 465.71,418.24C465.12,419.48 464.54,420.72 463.97,421.96C459.61,419.13 455.46,414.74 449.85,415.11C446.31,415.3 442.86,414.47 439.61,413.12C442.51,412.64 445.37,411.95 448.29,411.51Z" style="fill:rgb(72,69,65);fill-rule:nonzero;"/>
        <path d="M551.37,412.24C557.11,413.64 562.89,411.87 568.66,412.18C572.49,412.86 576.27,413.78 580.08,414.54C572.78,417.78 566.44,422.73 559.49,426.61C557.22,423.2 554.55,420.09 552.24,416.73C551.16,415.46 551.44,413.76 551.37,412.24Z" style="fill:rgb(72,69,65);fill-rule:nonzero;"/>
    </g>
    <g id="_-3c3a37ff" serif:id="#3c3a37ff">
        <path d="M413.15,414.37C421.98,414.19 430.76,412.22 439.61,413.12C442.86,414.47 446.31,415.3 449.85,415.11C455.46,414.74 459.61,419.13 463.97,421.96C464.54,420.72 465.12,419.48 465.71,418.24C469.14,419.96 472.56,421.68 475.99,423.42C474.42,425.62 473.3,429.36 469.99,429.09C460.33,429.07 453.05,421.75 444.3,418.78C444.27,419.54 444.22,421.07 444.19,421.83C447.26,423.46 450.26,425.19 453.16,427.12C443.55,428.34 436.92,419.42 427.65,418.98C429.66,422.73 433.64,424.5 437.13,426.56C431.77,426.46 426.03,426.66 421.31,423.72C416.98,421.07 412.69,418.21 407.7,416.96C407.72,421.86 412.73,423.58 416.1,425.96C412.05,426.15 407.83,426.54 403.97,424.99C399.95,423.4 395.94,421.66 391.62,421.05C392.72,423.26 394.13,425.29 395.8,427.11C391.43,426.95 386.96,426.86 382.86,425.19C378.6,423.53 374.19,422.17 369.59,422.05C370.58,425.44 374.06,426.48 376.94,427.78C366.76,429.38 356.55,431.29 346.9,434.99C343.62,436.26 340.26,437.31 336.84,438.12C341.81,432.96 348.35,429.86 354.63,426.62C363.03,422.39 371.48,418.1 380.61,415.69C380.57,416.29 380.5,417.49 380.46,418.09C391.21,415.79 402.24,415.53 413.15,414.37Z" style="fill:rgb(60,58,55);fill-rule:nonzero;"/>
    </g>
    <g id="_-443b33ff" serif:id="#443b33ff">
        <path d="M601.69,414.76C606.08,416.11 610.36,418.03 615.02,418.22C621.29,418.55 627.66,418.5 633.73,420.36C639.02,422.03 644.54,422.69 650.07,422.92C650.49,423.01 651.34,423.19 651.76,423.28C657.73,426.72 665.09,426.18 670.88,429.99C674.76,432.31 679.14,433.56 683.51,434.6C680.29,434.82 677.05,434.87 673.86,434.35C668.53,433.42 663.06,433.79 657.78,432.53C661.42,432.03 665.09,431.77 668.77,431.64C668.76,431.27 668.73,430.51 668.72,430.13C659.1,430.49 649.08,432.76 639.72,429.61C644.52,428.69 649.4,428.17 654.21,427.22C641.03,427.12 627.96,430.73 614.76,428.65C620.04,426.61 625.68,425.82 631.08,424.15C619.53,424.73 608.52,429.63 596.86,428.85C602.73,425.74 609.46,424.64 615.1,421.06C603.95,422.32 593.84,427.82 582.82,429.78C588.67,424.46 596.16,421.55 602.5,416.9C602.3,416.37 601.89,415.3 601.69,414.76Z" style="fill:rgb(68,59,51);fill-rule:nonzero;"/>
    </g>
    <g id="_-7a7773ff" serif:id="#7a7773ff">
        <path d="M642.89,420.28C645.64,420.11 648.4,419.92 651.16,419.89C654.37,420 657.35,421.33 660.26,422.56C657.41,422.68 654.59,423.05 651.76,423.28C651.34,423.19 650.49,423.01 650.07,422.92C647.64,422.12 645.27,421.18 642.89,420.28Z" style="fill:rgb(122,119,115);fill-rule:nonzero;"/>
    </g>
    <g id="_-4b4844ff" serif:id="#4b4844ff">
        <path d="M660.26,422.56C663.49,422.81 666.45,424.31 669.34,425.67C674.83,428.49 680.64,430.9 685.33,435.03C684.87,434.93 683.97,434.71 683.51,434.6C679.14,433.56 674.76,432.31 670.88,429.99C665.09,426.18 657.73,426.72 651.76,423.28C654.59,423.05 657.41,422.68 660.26,422.56Z" style="fill:rgb(75,72,68);fill-rule:nonzero;"/>
    </g>
    <g id="_-8e644bff" serif:id="#8e644bff">
        <path d="M388.37,433.25C407.93,431.77 427.55,432.95 447.09,434.18C456.75,434.8 466.42,435.8 476.11,435.27C470.4,436.21 464.32,436.19 459.19,439.23C455.24,438.65 451.27,438.32 447.29,438.06C438.87,436.44 430.28,436.98 421.76,436.45C407.76,435.81 393.75,436.46 379.75,436.83C382.95,436.61 385.88,435.22 388.37,433.25Z" style="fill:rgb(142,100,75);fill-rule:nonzero;"/>
        <path d="M538.07,570.18C542.31,568.15 546.42,565.79 550.83,564.17C551.54,564.9 552,566.29 551.05,567.04C547.25,570.68 542.54,573.18 538.49,576.52C532.95,580.61 528.09,585.9 521.6,588.5C514.35,590.66 507.3,586.7 500.61,584.39C493.47,581.93 487.21,577.51 481.97,572.13C486.59,573.39 491.23,574.64 496.02,575.06C503.11,575.66 510.13,577.06 517.27,577C524.84,577.51 531.66,573.7 538.07,570.18Z" style="fill:rgb(142,100,75);fill-rule:nonzero;"/>
        <path d="M601.37,660.96C600.82,657.81 603.87,654.92 606.97,655.31C615.53,656.09 625.09,661.7 625.82,671.08C627.19,678.15 621.56,683.53 617.3,688.31C613.61,691.85 610.37,696.75 604.83,697.31C604.48,692.42 607.19,687.01 604.15,682.61C603.54,681.59 602.92,680.61 602.3,679.63C605.85,676.13 610.36,672.52 615.68,673.24C618.01,674.68 619.75,676.9 622.11,678.32C625.55,678.39 625.91,673.94 624.37,671.7C621.99,667.44 618.35,662.54 613.06,662.26C609.55,662.27 609.84,666.48 609.21,668.91C606.8,667.76 604.39,666.62 601.94,665.55C601.73,664.02 601.51,662.49 601.37,660.96Z" style="fill:rgb(142,100,75);fill-rule:nonzero;"/>
        <path d="M637.26,656.37C639.09,653.81 642.85,655.57 644.34,657.67C647.45,661.98 648.25,667.87 647.07,673C644.73,679.11 640.75,684.55 636.04,689.06C638.44,684.07 642.4,679.63 643.15,674C641.92,667.92 636.37,662.98 637.26,656.37Z" style="fill:rgb(142,100,75);fill-rule:nonzero;"/>
    </g>
    <g id="_-6b4b38ff" serif:id="#6b4b38ff">
        <path d="M352.81,437.89C364.39,434.75 376.43,433.79 388.37,433.25C385.88,435.22 382.95,436.61 379.75,436.83C370.78,437.35 361.79,437.65 352.81,437.89Z" style="fill:rgb(107,75,56);fill-rule:nonzero;"/>
        <path d="M397.05,652.97C397.72,648.43 404.74,647.07 406.48,651.47C406.6,655.73 405.33,659.88 404.83,664.1C403.94,664.26 403.06,664.43 402.18,664.61C401.78,660.25 400.8,655.72 397.05,652.97Z" style="fill:rgb(107,75,56);fill-rule:nonzero;"/>
    </g>
    <g id="_-8c6334ff" serif:id="#8c6334ff">
        <path d="M390.44,461.56C400.13,459.46 410.32,460.67 419.86,463.08C421.68,463.73 424.19,464 424.93,466.11C428.41,474.09 426.5,484.13 420.31,490.26C418.03,492.68 414.43,492.33 411.41,492.55C405.91,492.56 400.42,493.16 394.93,493.07C391.12,493.38 388.84,489.77 387.05,486.98C382.54,479.14 383.49,467.62 390.44,461.56M403.42,462.48C397.5,463.46 391.75,467.91 391.29,474.24C390.11,481.23 396.25,487.26 402.79,488.32C409.33,489.97 416.45,485.86 418.65,479.57C422.49,470.64 412.59,460.2 403.42,462.48Z" style="fill:rgb(140,99,52);fill-rule:nonzero;"/>
        <path d="M598.86,466.84C602.59,464.05 607.73,464.47 612.17,463.98C608.97,465.63 605.72,467.64 603.83,470.81C600.95,475.61 601.87,482.25 605.79,486.22C611.02,491.59 620.01,493.5 626.64,489.64C631.36,486.61 634.03,480.76 633.69,475.23C633.33,470.58 629.45,467.38 625.91,464.91C629.84,465.44 633.69,466.39 637.49,467.53C640.18,476.07 639.27,486.94 631.62,492.65C626.84,493.84 621.86,492.97 617,493.09C612.12,492.91 607.15,493.71 602.34,492.69C595.05,486.6 594.03,474.73 598.86,466.84Z" style="fill:rgb(140,99,52);fill-rule:nonzero;"/>
    </g>
    <g id="_-4a300bff" serif:id="#4a300bff">
        <path d="M403.42,462.48C412.59,460.2 422.49,470.64 418.65,479.57C416.45,485.86 409.33,489.97 402.79,488.32C396.25,487.26 390.11,481.23 391.29,474.24C391.75,467.91 397.5,463.46 403.42,462.48M396.81,470.84C395.13,473.42 397.42,475.8 399.54,477.1C399.74,478.04 399.95,478.98 400.17,479.93C404.71,479.79 409.24,479.3 413.74,478.61C413.78,475.68 413.86,472.76 413.97,469.84C410.43,469.34 406.82,469.43 403.37,470.43C401.33,469.35 398.16,468.08 396.81,470.84Z" style="fill:rgb(74,48,11);fill-rule:nonzero;"/>
        <path d="M612.17,463.98C616.74,463.53 621.45,463.74 625.91,464.91C629.45,467.38 633.33,470.58 633.69,475.23C634.03,480.76 631.36,486.61 626.64,489.64C620.01,493.5 611.02,491.59 605.79,486.22C601.87,482.25 600.95,475.61 603.83,470.81C605.72,467.64 608.97,465.63 612.17,463.98M607.76,470.82C605.03,472.79 607.1,475.94 608.9,477.69C609.44,478.88 609.75,480.26 610.7,481.23C615.2,481.69 619.81,481.69 624.3,481.11C627.15,479.03 625.08,474.9 625.07,471.99C621.43,471.92 617.8,472.03 614.2,472.4L613.77,473.17C612.54,471.16 610.1,468.86 607.76,470.82Z" style="fill:rgb(74,48,11);fill-rule:nonzero;"/>
    </g>
    <g id="_-ffffffff" serif:id="#ffffffff">
        <path d="M367.63,473.63C372.57,468.87 378.4,465.08 384.84,462.68C382.87,467.2 380.85,471.92 381.18,476.97C381.19,483.25 384.31,488.97 388.33,493.61C383.72,494.03 379.12,494.58 374.54,495.25C371.93,491.82 368.89,488.48 367.78,484.2C366.78,480.75 367.38,477.14 367.63,473.63Z" style="fill:white;fill-rule:nonzero;"/>
        <path d="M427.76,465.56C433.13,467.55 438.19,470.25 443.29,472.83C444.05,479.42 442.25,486.12 437.98,491.24C433.15,491.57 428.31,491.83 423.47,491.77C425.77,487.71 428.32,483.61 429.03,478.91C429.91,474.42 428.7,469.93 427.76,465.56Z" style="fill:white;fill-rule:nonzero;"/>
        <path d="M579.73,474.76C584.57,472.14 589.57,469.82 594.62,467.63C593.56,471.33 592.46,475.13 592.74,479.03C592.98,483.98 595.28,488.47 597.68,492.7C593.19,492.48 588.69,492.27 584.2,492.31C582.53,489.68 580.56,487.08 579.97,483.94C579.4,480.91 579.66,477.81 579.73,474.76Z" style="fill:white;fill-rule:nonzero;"/>
        <path d="M396.81,470.84C398.16,468.08 401.33,469.35 403.37,470.43C403.68,473.45 402.34,475.91 399.54,477.1C397.42,475.8 395.13,473.42 396.81,470.84Z" style="fill:white;fill-rule:nonzero;"/>
        <path d="M640.6,468.7C645.3,471.04 649.74,473.97 653.37,477.8C652.98,483.3 651.91,489.84 646.61,492.78C643.2,493.93 639.48,493.03 635.96,493.17C638.14,489.51 640.53,485.83 641.3,481.57C642.25,477.28 641.4,472.92 640.6,468.7Z" style="fill:white;fill-rule:nonzero;"/>
        <path d="M607.76,470.82C610.1,468.86 612.54,471.16 613.77,473.17C612.94,475.45 611.14,476.91 608.9,477.69C607.1,475.94 605.03,472.79 607.76,470.82Z" style="fill:white;fill-rule:nonzero;"/>
        <path d="M468.05,661.88C473.28,661.55 478.55,660.97 483.79,661.48C492.28,663.2 499.1,670.19 508,670.34C524.16,668.07 539.45,660.07 556.08,661.11C567.76,661.81 579.05,665.4 589.92,669.53C589.99,674.58 588.46,679.43 587.3,684.3C586.57,687.99 584.05,690.91 581.65,693.65C578.58,696.67 574.28,697.97 570.22,699.02C557.13,702 544,704.79 530.76,706.97C515.95,709.38 500.88,708.91 485.94,708.55C479.33,708.47 472.44,707.85 466.62,704.45C465.5,702.64 466.32,700.23 466.11,698.2C472.57,698.17 479.03,698.14 485.47,697.53C487.2,697.24 490.66,696.8 488.99,694.34C480.42,693.83 471.72,693.83 463.32,691.81C457.04,690.35 450.59,689.99 444.19,689.48C441.08,689.15 437.41,687.55 436.92,684.09C435.47,678.29 434.95,672.1 436.24,666.22C446.69,663.85 457.4,662.97 468.05,661.88Z" style="fill:white;fill-rule:nonzero;"/>
    </g>
    <g id="_-784d35ff" serif:id="#784d35ff">
        <path d="M742.07,508.79C742.2,507.14 742.29,505.5 742.4,503.86C742.71,505.49 743.03,507.12 743.37,508.76C744.51,508.88 745.66,508.99 746.83,509.11C744.42,511.96 742.55,515.36 742.85,519.22C742.74,522.07 742.71,524.93 742.66,527.8C742.31,533.59 741.97,539.4 742.12,545.21C744.43,546.04 747.05,546.44 748.98,548.07C751.32,550.76 752.24,554.33 753.45,557.63C755.43,563.87 758.39,570.12 757.7,576.85C757.14,584.32 753.71,592.31 746.69,595.79C744.56,597.19 742.43,595.25 740.55,594.37C740.76,593.08 741.03,591.82 741.36,590.57L741.68,589.88C742.27,591.04 742.88,592.21 743.5,593.38C747.68,589.62 751.96,585.76 754.79,580.84C756.14,578.71 755.75,576.11 755.34,573.78C754.26,568.4 753.01,562.36 748,559.22C745.34,564.48 747.67,570.08 748.46,575.46C749.2,578.79 746.86,581.57 745.23,584.2C747.2,577.45 747.12,570.27 745.14,563.54C744.65,563.56 743.67,563.61 743.17,563.64C743.11,561.86 743.05,560.1 743.01,558.33C742.35,558.04 741.04,557.46 740.38,557.17C739.88,547.75 741.71,538.38 740.89,528.98C740.32,522.21 741.54,515.51 742.07,508.79Z" style="fill:rgb(120,77,53);fill-rule:nonzero;"/>
        <path d="M295.19,547.72C298.09,565.15 299.55,582.77 301.67,600.31C304.18,620.79 306.5,641.31 310.33,661.6C312.25,672.65 317.82,682.53 322.35,692.65C329.75,707.22 337.28,721.84 346.97,735.06C347.66,736.33 348.36,737.61 349.06,738.9C352.52,749.02 357.47,758.56 363.76,767.22C369.28,775.24 374.77,783.4 381.73,790.28C386.87,795.37 392,800.47 397.04,805.67C395.6,806.02 394.17,806.39 392.74,806.76C392.17,808.2 391.61,809.65 391.05,811.11C384.55,804.89 377.69,799.03 371.61,792.41C359.37,778.17 347.51,763.57 336.96,748.03C328.5,735.77 321.35,722.52 316.57,708.39C312.47,697.14 310.21,685.36 307.16,673.82C306.29,669.71 304.71,665.59 305.19,661.33C307.32,652.6 304.73,643.81 303.86,635.1C301.77,617.21 299.49,599.34 297.54,581.44C296.33,570.23 294.94,559.01 295.19,547.72Z" style="fill:rgb(120,77,53);fill-rule:nonzero;"/>
        <path d="M719.27,617.26C722.69,597.51 725.82,577.7 727.82,557.74C727.86,562.92 727.92,568.12 727.44,573.29C726.35,585.48 727.55,597.73 726.75,609.93C726.13,619.09 725.49,628.31 723.33,637.26C721.15,646.44 718.92,655.61 716.65,664.77C715.66,668.6 715.55,672.56 715.48,676.49C715.35,679.75 713.91,682.74 712.74,685.73C708.02,696.96 704.17,708.6 698.31,719.33C694.07,727.19 688.74,734.37 683.86,741.83C675.5,754.57 666.68,767.1 656.24,778.25C649.8,785.38 643.39,792.54 636.39,799.14C634.98,796.1 633,793.36 630.25,791.41C640.45,779.47 650.51,767.37 659.47,754.46C666.7,743.71 674.27,732.71 676.84,719.77C677.3,718.59 677.76,717.43 678.24,716.27C686.58,704.62 693.25,691.9 700.69,679.68C705.09,672.54 706.93,664.29 709.28,656.34C713.04,643.43 716.86,630.51 719.27,617.26Z" style="fill:rgb(120,77,53);fill-rule:nonzero;"/>
        <path d="M262.88,578.83C265.23,572.01 269.46,565.46 275.88,561.86C272.56,568.69 267.36,575.11 266.86,582.93C267.93,588.39 273.5,591.08 277.64,594.04C278.15,593.05 278.67,592.06 279.17,591.07C280.58,592.84 282.12,594.59 282.95,596.73C283.34,598.47 282.72,600.25 282.51,601.99C275.23,600.26 267.79,596.89 263.7,590.31C261.42,586.92 261.56,582.55 262.88,578.83Z" style="fill:rgb(120,77,53);fill-rule:nonzero;"/>
        <path d="M530.98,587C536.19,584.75 541.21,581.64 546.97,581.07C554.99,580.11 562.88,582.25 570.71,583.61C575.31,584.08 579.9,583.3 584.36,582.23C582.34,588 576.07,589.89 571.2,592.52C570.18,592.3 569.19,592.05 568.2,591.78C563.75,589.75 560.42,585.82 555.77,584.2C550.4,582.79 544.26,583.38 539.67,586.7C533.71,591.02 528.1,595.8 522.38,600.42C520.27,602.28 517.42,602.76 514.7,602.71C518.59,599.66 522.46,596.57 526.19,593.32C523.73,593.79 521.27,594.27 518.81,594.72C519.96,593.56 521.11,592.41 522.33,591.33C524.93,589.39 528.07,588.38 530.98,587Z" style="fill:rgb(120,77,53);fill-rule:nonzero;"/>
        <path d="M496.16,591.97C498.71,592.34 501.27,592.69 503.83,593C507.69,593.64 511.41,594.89 515.08,596.23C513.03,597.29 510.98,598.34 508.93,599.4C510.26,600.39 511.58,601.39 512.96,602.33C506.06,601.54 500.42,597.19 496.16,591.97Z" style="fill:rgb(120,77,53);fill-rule:nonzero;"/>
        <path d="M738,629.55C743.62,629.61 749.15,628.37 754.4,626.43C752.05,634.01 744.8,639.49 736.82,639.44C737.15,636.13 737.54,632.84 738,629.55Z" style="fill:rgb(120,77,53);fill-rule:nonzero;"/>
        <path d="M289.2,632.84C289.92,637.07 290.7,641.44 289.92,645.73C287.14,647.63 282.86,649.95 279.86,647.2C275.31,643.67 271.89,638.89 269.21,633.84C275.06,637.89 282.14,639.33 289.1,639.93C289.15,637.56 289.21,635.2 289.2,632.84Z" style="fill:rgb(120,77,53);fill-rule:nonzero;"/>
    </g>
    <g id="_-71523fff" serif:id="#71523fff">
        <path d="M277.3,510.75C279.15,512.3 280.83,514.16 281.45,516.57C283.02,521.64 285.12,526.61 285.87,531.89C286.45,540.94 288.17,549.86 288.79,558.9C288,558.62 286.44,558.06 285.66,557.78C285.24,560.94 284.87,564.11 284.51,567.28C284.29,565.75 284.06,564.24 283.84,562.73C283.2,558.16 282.88,553.54 282.51,548.94C282.2,545.34 281.57,541.79 281.02,538.23C280.37,533.9 279.7,529.57 278.89,525.27C278.81,524.84 278.64,523.98 278.56,523.55C278.13,519.28 278,514.98 277.3,510.75Z" style="fill:rgb(113,82,63);fill-rule:nonzero;"/>
    </g>
    <g id="_-7f5a43ff" serif:id="#7f5a43ff">
        <path d="M435.29,578.24C435.4,577.92 435.63,577.26 435.75,576.94C435.57,580.42 435.35,584.07 436.61,587.4C437.97,590.54 440.96,592.53 443.79,594.23C452.61,600.32 463.79,598.8 473.87,600.27C485.47,601.01 495.19,608.21 506.37,610.62C513.95,612.45 522.56,610.71 528.31,605.3C530.88,603.07 533.32,600.09 537,599.89C547.06,598.83 557.22,599.3 567.3,598.46C571.54,598.16 575.35,596.19 579.14,594.45C581.68,593.49 584.26,592.62 586.78,591.57C581.87,604.28 571.5,613.72 561.39,622.37C552.66,629.64 543.81,637.4 532.83,641.02C530.32,641.45 527.8,641.87 525.28,642.19C514.61,642.93 504.9,637.51 496.57,631.44C482.36,620.96 467.61,611.04 451.63,603.42C445.81,600.53 439.74,597.41 435.74,592.12C433.39,587.82 433.4,582.7 435.29,578.24Z" style="fill:rgb(127,90,67);fill-rule:nonzero;"/>
        <path d="M395.53,681.7C398.07,678.98 400.17,675.88 401.72,672.49C401.45,678 402.63,683.47 404.92,688.47C400.15,690.44 397.81,684.78 395.53,681.7Z" style="fill:rgb(127,90,67);fill-rule:nonzero;"/>
        <path d="M654.57,749.57C662.41,739.95 669.47,729.74 676.84,719.77C674.27,732.71 666.7,743.71 659.47,754.46C650.51,767.37 640.45,779.47 630.25,791.41C625.03,797.47 619.58,803.34 614.43,809.46C612.04,812.31 609.33,814.88 606.42,817.21C607.54,813.84 609.25,810.72 611.29,807.83C610.53,807.15 609.77,806.48 609.01,805.82C603.77,810.64 598.81,815.83 592.97,819.96C581,828.46 568.91,837.67 554.4,841.27C544.19,844.16 533.5,843.98 523,843.8C502.29,843.28 481.91,839.12 461.84,834.27C452.04,831.56 442.03,828.39 433.8,822.22C426.95,817.23 423.45,808.35 415.03,805.47C414.72,808.6 414.45,811.74 414.28,814.88C414.16,816.82 414.11,818.77 414.05,820.74C408.24,815.88 402.41,811.03 397.04,805.67C392,800.47 386.87,795.37 381.73,790.28C374.77,783.4 369.28,775.24 363.76,767.22C357.47,758.56 352.52,749.02 349.06,738.9C359.76,752.85 369.99,767.2 381.94,780.14C385.56,785.31 389.9,790.01 395.14,793.6C398.14,796.3 402.02,797.6 406.06,797.19C400.12,781.81 390.52,768.05 385.25,752.38C387.93,754.54 390.28,757.13 391.72,760.29C397.97,773.15 405.62,785.32 414.48,796.54C418.94,802 425.43,805.07 431.3,808.71C438.33,812.94 444.82,818.01 451.99,822.01C463.52,828.3 476.34,831.86 489.29,833.78C511.53,837.35 534.59,835.76 556.12,829.14C571.36,825.2 586.42,818.92 598.07,808.06C603.48,803.29 607.01,796.91 611.09,791.06C616.45,783.36 621.47,775.44 626.56,767.57C629.8,762.36 632.46,756.74 636.59,752.14C636.41,758.36 632.59,763.46 629.61,768.63C625.07,776.48 619.87,783.91 615.29,791.73C616.5,792.34 617.72,792.97 618.94,793.6C631.17,779.21 642.71,764.25 654.57,749.57Z" style="fill:rgb(127,90,67);fill-rule:nonzero;"/>
    </g>
    <g id="_-604432ff" serif:id="#604432ff">
        <path d="M449.18,589.68C453.46,590.73 457.88,591.18 462.28,591.44C463,592.22 463.73,593 464.46,593.79C471.12,593 477.98,591.73 484.59,593.53C491.62,595.33 496.24,601.57 502.91,604.16C509.17,606.67 516.61,609.48 523.12,606.17C529.45,603.14 531.86,594.72 539.15,593.37C545.83,592.16 552.91,591.39 559.49,593.58C562.52,594.54 565.7,594.86 568.87,594.79C568.7,594.04 568.37,592.54 568.2,591.78C569.19,592.05 570.18,592.3 571.2,592.52C573.84,593.15 576.47,593.86 579.14,594.45C575.35,596.19 571.54,598.16 567.3,598.46C557.22,599.3 547.06,598.83 537,599.89C533.32,600.09 530.88,603.07 528.31,605.3C522.56,610.71 513.95,612.45 506.37,610.62C495.19,608.21 485.47,601.01 473.87,600.27C463.79,598.8 452.61,600.32 443.79,594.23C447.44,594.89 451.12,595.36 454.79,595.91C455.06,595.5 455.61,594.69 455.88,594.29C453.61,592.79 451.34,591.3 449.18,589.68Z" style="fill:rgb(96,68,50);fill-rule:nonzero;"/>
    </g>
    <g id="_-886048ff" serif:id="#886048ff">
        <path d="M507.12,593.13C512.25,593.26 517.28,592.06 522.33,591.33C521.11,592.41 519.96,593.56 518.81,594.72C521.27,594.27 523.73,593.79 526.19,593.32C522.46,596.57 518.59,599.66 514.7,602.71C514.26,602.61 513.4,602.42 512.96,602.33C511.58,601.39 510.26,600.39 508.93,599.4C510.98,598.34 513.03,597.29 515.08,596.23C511.41,594.89 507.69,593.64 503.83,593C504.65,593.03 506.3,593.1 507.12,593.13Z" style="fill:rgb(136,96,72);fill-rule:nonzero;"/>
    </g>
    <g id="_-a46c4dff" serif:id="#a46c4dff">
        <path d="M511.55,648.6C521.15,647.65 530.19,643 540.01,643.74C555.31,644.72 570.17,648.94 584.9,652.97C590.55,655.26 595.86,658.34 601.37,660.96C601.51,662.49 601.73,664.02 601.94,665.55C586.87,659.13 570.56,654.51 554.03,655.6C540.15,656.43 526.7,660.38 512.94,662.11C505.13,662.97 499.34,656.03 491.79,655.34C484.85,654.78 477.93,656.06 470.99,656.06C459.96,656.15 448.97,657.02 438.02,658.31C448.64,653.9 460.26,652.61 471.18,649.07C477.32,647.89 483.38,646.2 489.61,645.56C497.14,644.68 504.01,649.44 511.55,648.6Z" style="fill:rgb(164,108,77);fill-rule:nonzero;"/>
        <path d="M412.93,678.95C422.6,687.45 432.61,695.66 443.55,702.5C453.46,708.97 463.73,716.29 475.96,717.08C488.81,717.93 501.71,717.14 514.56,716.46C530.91,714.88 546.97,711.1 562.82,706.89C570.14,704.84 577.93,702.98 583.76,697.78C590.24,692.05 596.02,685.58 602.3,679.63C602.92,680.61 603.54,681.59 604.15,682.61C600.53,686.96 597.66,691.84 594.55,696.56C588.44,704.99 581.47,712.92 573.06,719.14C571.43,720.51 569.22,719.95 567.29,719.9C567.85,720.71 568.41,721.53 568.98,722.37C563.42,726.89 557.09,730.31 551.03,734.09C543.67,735.95 536.1,736.72 528.57,737.51C517.77,738.61 506.9,737.44 496.1,738.35C492.69,738.59 489.26,738.82 485.85,738.55C486,738.18 486.3,737.44 486.45,737.07C467.52,732.31 450.5,721.82 435.89,709.1C431.56,705.43 427.81,701.15 424.24,696.76C419.82,691.28 415.24,685.7 412.93,678.95Z" style="fill:rgb(164,108,77);fill-rule:nonzero;"/>
    </g>
    <g id="_-765540fe" serif:id="#765540fe">
        <path d="M394.24,677.05C393.76,671.87 392.71,666.37 395.25,661.52C395.73,666.7 395.99,672.05 394.24,677.05Z" style="fill:rgb(118,85,64);fill-rule:nonzero;"/>
    </g>
    <g id="_-1b171386" serif:id="#1b171386">
        <path d="M645.8,819.72C644.07,817.5 644.12,814.87 645.68,812.59C645.86,814.96 645.93,817.34 645.8,819.72Z" style="fill:rgb(27,23,19);fill-opacity:0.53;fill-rule:nonzero;"/>
    </g>
    <g id="_-04040316" serif:id="#04040316">
        <path d="M647.97,814.6C649.82,814.03 650.04,817.85 648.53,818.39C647.26,817.77 647.18,815.63 647.97,814.6Z" style="fill:rgb(4,4,3);fill-opacity:0.09;fill-rule:nonzero;"/>
    </g>
    <g id="_-03030210" serif:id="#03030210">
        <path d="M620.84,828.17C621.99,828.78 623.14,829.41 624.29,830.05C623.22,831.56 622.16,833.07 621.09,834.59C620.99,832.44 620.89,830.3 620.84,828.17Z" style="fill:rgb(3,3,2);fill-opacity:0.06;fill-rule:nonzero;"/>
    </g>
</svg>
